<?xml version="1.0" encoding="UTF-8"?>
<!DOCTYPE svg PUBLIC "-//W3C//DTD SVG 1.1//EN" "http://www.w3.org/Graphics/SVG/1.1/DTD/svg11.dtd">
<svg version="1.1" xmlns="http://www.w3.org/2000/svg" xmlns:xlink="http://www.w3.org/1999/xlink" x="0" y="0" width="387" height="155" viewBox="0, 0, 504, 200">
  <g id="svg-subarray">
    <g id="svg-subarray-matrix1">
      <g id="svg-subarray-matrix1-items">
        <g>
          <path d="M12.5,12.5 L72.5,12.5 L72.5,72.5 L12.5,72.5 L12.5,12.5 z" fill="#CFDEFF"/>
          <path d="M12.5,12.5 L72.5,12.5 L72.5,72.5 L12.5,72.5 L12.5,12.5 z" fill-opacity="0" stroke="#000000" stroke-width="1"/>
        </g>
        <g>
          <path d="M12.5,72.5 L72.5,72.5 L72.5,132.5 L12.5,132.5 L12.5,72.5 z" fill="#CFDEFF"/>
          <path d="M12.5,72.5 L72.5,72.5 L72.5,132.5 L12.5,132.5 L12.5,72.5 z" fill-opacity="0" stroke="#000000" stroke-width="1"/>
        </g>
        <g>
          <path d="M12.5,132.5 L72.5,132.5 L72.5,192.5 L12.5,192.5 L12.5,132.5 z" fill="#CFDEFF"/>
          <path d="M12.5,132.5 L72.5,132.5 L72.5,192.5 L12.5,192.5 L12.5,132.5 z" fill-opacity="0" stroke="#000000" stroke-width="1"/>
        </g>
        <g>
          <path d="M72.5,12.5 L132.5,12.5 L132.5,72.5 L72.5,72.5 L72.5,12.5 z" fill="#CFDEFF"/>
          <path d="M72.5,12.5 L132.5,12.5 L132.5,72.5 L72.5,72.5 L72.5,12.5 z" fill-opacity="0" stroke="#000000" stroke-width="1"/>
        </g>
        <g>
          <path d="M72.5,72.5 L132.5,72.5 L132.5,132.5 L72.5,132.5 L72.5,72.5 z" fill="#CFDEFF"/>
          <path d="M72.5,72.5 L132.5,72.5 L132.5,132.5 L72.5,132.5 L72.5,72.5 z" fill-opacity="0" stroke="#000000" stroke-width="1"/>
        </g>
        <g>
          <path d="M72.5,132.5 L132.5,132.5 L132.5,192.5 L72.5,192.5 L72.5,132.5 z" fill="#CFDEFF"/>
          <path d="M72.5,132.5 L132.5,132.5 L132.5,192.5 L72.5,192.5 L72.5,132.5 z" fill-opacity="0" stroke="#000000" stroke-width="1"/>
        </g>
        <g>
          <path d="M132.5,12.5 L192.5,12.5 L192.5,72.5 L132.5,72.5 L132.5,12.5 z" fill="#CFDEFF"/>
          <path d="M132.5,12.5 L192.5,12.5 L192.5,72.5 L132.5,72.5 L132.5,12.5 z" fill-opacity="0" stroke="#000000" stroke-width="1"/>
        </g>
        <g>
          <path d="M132.5,72.5 L192.5,72.5 L192.5,132.5 L132.5,132.5 L132.5,72.5 z" fill="#CFDEFF"/>
          <path d="M132.5,72.5 L192.5,72.5 L192.5,132.5 L132.5,132.5 L132.5,72.5 z" fill-opacity="0" stroke="#000000" stroke-width="1"/>
        </g>
        <g>
          <path d="M132.5,132.5 L192.5,132.5 L192.5,192.5 L132.5,192.5 L132.5,132.5 z" fill="#CFDEFF"/>
          <path d="M132.5,132.5 L192.5,132.5 L192.5,192.5 L132.5,192.5 L132.5,132.5 z" fill-opacity="0" stroke="#000000" stroke-width="1"/>
        </g>
      </g>
      <g id="svg-subarray-matrix1-labels">
        <path d="M46.084,49.131 L39,49.131 L39,47.795 L41.725,47.795 L41.725,39.023 L39,39.023 L39,37.828 Q39.554,37.828 40.187,37.736 Q40.819,37.644 41.145,37.468 Q41.549,37.248 41.782,36.91 Q42.015,36.571 42.05,36 L43.412,36 L43.412,47.795 L46.084,47.795 z" fill="#000000"/>
        <path d="M106.859,49.359 L98,49.359 L98,47.522 Q98.923,46.731 99.85,45.94 Q100.777,45.149 101.577,44.367 Q103.265,42.732 103.889,41.77 Q104.513,40.808 104.513,39.691 Q104.513,38.672 103.84,38.096 Q103.168,37.521 101.964,37.521 Q101.164,37.521 100.232,37.802 Q99.301,38.083 98.413,38.663 L98.325,38.663 L98.325,36.817 Q98.949,36.51 99.991,36.255 Q101.032,36 102.008,36 Q104.021,36 105.163,36.971 Q106.306,37.942 106.306,39.604 Q106.306,40.351 106.117,40.997 Q105.928,41.643 105.559,42.223 Q105.216,42.768 104.754,43.295 Q104.293,43.822 103.634,44.464 Q102.693,45.387 101.691,46.252 Q100.689,47.118 99.819,47.856 L106.859,47.856 z" fill="#000000"/>
        <path d="M165.655,43.058 Q166.077,43.436 166.35,44.007 Q166.622,44.578 166.622,45.483 Q166.622,46.38 166.297,47.127 Q165.972,47.874 165.383,48.428 Q164.724,49.043 163.832,49.337 Q162.939,49.632 161.876,49.632 Q160.786,49.632 159.731,49.373 Q158.677,49.113 158,48.806 L158,46.969 L158.132,46.969 Q158.879,47.461 159.89,47.786 Q160.9,48.111 161.841,48.111 Q162.395,48.111 163.019,47.927 Q163.643,47.742 164.029,47.382 Q164.434,46.995 164.631,46.529 Q164.829,46.063 164.829,45.352 Q164.829,44.648 164.605,44.187 Q164.381,43.726 163.985,43.462 Q163.59,43.189 163.027,43.088 Q162.465,42.987 161.814,42.987 L161.023,42.987 L161.023,41.528 L161.639,41.528 Q162.975,41.528 163.77,40.97 Q164.565,40.412 164.565,39.34 Q164.565,38.865 164.363,38.509 Q164.161,38.153 163.801,37.925 Q163.423,37.696 162.992,37.608 Q162.562,37.521 162.017,37.521 Q161.182,37.521 160.241,37.819 Q159.301,38.118 158.466,38.663 L158.378,38.663 L158.378,36.826 Q159.002,36.519 160.043,36.259 Q161.085,36 162.061,36 Q163.019,36 163.748,36.176 Q164.478,36.352 165.066,36.738 Q165.699,37.16 166.024,37.758 Q166.35,38.355 166.35,39.155 Q166.35,40.245 165.581,41.058 Q164.812,41.871 163.766,42.082 L163.766,42.205 Q164.187,42.275 164.732,42.5 Q165.277,42.724 165.655,43.058 z" fill="#000000"/>
        <path d="M45.896,104.404 L43.954,104.404 L43.954,108.087 L42.267,108.087 L42.267,104.404 L36,104.404 L36,102.383 L42.337,95 L43.954,95 L43.954,102.998 L45.896,102.998 z M42.267,102.998 L42.267,97.092 L37.195,102.998 z" fill="#000000"/>
        <path d="M106.525,103.93 Q106.525,104.844 106.191,105.679 Q105.857,106.514 105.277,107.085 Q104.645,107.7 103.77,108.03 Q102.896,108.359 101.744,108.359 Q100.672,108.359 99.679,108.135 Q98.686,107.911 98,107.595 L98,105.74 L98.123,105.74 Q98.844,106.197 99.811,106.518 Q100.777,106.839 101.709,106.839 Q102.333,106.839 102.917,106.663 Q103.502,106.487 103.959,106.048 Q104.346,105.67 104.543,105.143 Q104.741,104.615 104.741,103.921 Q104.741,103.244 104.508,102.778 Q104.275,102.312 103.862,102.031 Q103.405,101.697 102.75,101.561 Q102.096,101.425 101.287,101.425 Q100.514,101.425 99.797,101.53 Q99.081,101.636 98.562,101.741 L98.562,95 L106.437,95 L106.437,96.538 L100.259,96.538 L100.259,100.019 Q100.637,99.983 101.032,99.966 Q101.428,99.948 101.718,99.948 Q102.781,99.948 103.581,100.128 Q104.381,100.309 105.049,100.766 Q105.752,101.249 106.139,102.014 Q106.525,102.778 106.525,103.93 z" fill="#000000"/>
        <path d="M166.264,104.088 Q166.264,106.083 164.95,107.344 Q163.636,108.605 161.729,108.605 Q160.762,108.605 159.971,108.307 Q159.18,108.008 158.573,107.419 Q157.817,106.689 157.409,105.485 Q157,104.281 157,102.585 Q157,100.845 157.374,99.5 Q157.747,98.155 158.564,97.109 Q159.338,96.116 160.56,95.558 Q161.781,95 163.407,95 Q163.926,95 164.277,95.044 Q164.629,95.088 164.989,95.202 L164.989,96.881 L164.901,96.881 Q164.655,96.749 164.159,96.63 Q163.662,96.512 163.144,96.512 Q161.254,96.512 160.129,97.694 Q159.004,98.876 158.819,100.889 Q159.558,100.44 160.274,100.208 Q160.99,99.975 161.931,99.975 Q162.766,99.975 163.403,100.128 Q164.04,100.282 164.708,100.748 Q165.481,101.284 165.873,102.102 Q166.264,102.919 166.264,104.088 z M164.479,104.158 Q164.479,103.341 164.238,102.805 Q163.996,102.269 163.442,101.873 Q163.038,101.592 162.546,101.504 Q162.054,101.416 161.518,101.416 Q160.77,101.416 160.129,101.592 Q159.487,101.768 158.811,102.137 Q158.793,102.33 158.784,102.51 Q158.775,102.69 158.775,102.963 Q158.775,104.352 159.061,105.156 Q159.347,105.96 159.848,106.426 Q160.252,106.812 160.722,106.993 Q161.192,107.173 161.746,107.173 Q163.02,107.173 163.75,106.395 Q164.479,105.617 164.479,104.158 z" fill="#000000"/>
        <path d="M46.956,156.96 L41.032,168.087 L39.151,168.087 L45.453,156.538 L38,156.538 L38,155 L46.956,155 z" fill="#000000"/>
        <path d="M107.299,164.738 Q107.299,166.435 105.976,167.56 Q104.653,168.685 102.649,168.685 Q100.522,168.685 99.261,167.586 Q98,166.487 98,164.773 Q98,163.684 98.633,162.8 Q99.266,161.917 100.417,161.398 L100.417,161.346 Q99.362,160.783 98.857,160.115 Q98.352,159.447 98.352,158.445 Q98.352,156.969 99.564,155.984 Q100.777,155 102.649,155 Q104.609,155 105.778,155.94 Q106.947,156.881 106.947,158.331 Q106.947,159.219 106.394,160.076 Q105.84,160.933 104.768,161.416 L104.768,161.469 Q105.998,161.996 106.648,162.77 Q107.299,163.543 107.299,164.738 z M105.216,158.349 Q105.216,157.408 104.491,156.85 Q103.766,156.292 102.641,156.292 Q101.533,156.292 100.826,156.819 Q100.118,157.347 100.118,158.243 Q100.118,158.876 100.474,159.337 Q100.83,159.799 101.551,160.159 Q101.876,160.317 102.487,160.572 Q103.098,160.827 103.678,160.994 Q104.548,160.414 104.882,159.79 Q105.216,159.166 105.216,158.349 z M105.488,164.905 Q105.488,164.097 105.132,163.609 Q104.776,163.121 103.739,162.629 Q103.326,162.436 102.834,162.269 Q102.342,162.102 101.524,161.803 Q100.733,162.233 100.254,162.972 Q99.775,163.71 99.775,164.642 Q99.775,165.828 100.593,166.602 Q101.41,167.375 102.667,167.375 Q103.95,167.375 104.719,166.716 Q105.488,166.057 105.488,164.905 z" fill="#000000"/>
        <path d="M166.264,161.021 Q166.264,162.734 165.873,164.132 Q165.481,165.529 164.69,166.514 Q163.891,167.516 162.687,168.061 Q161.482,168.605 159.856,168.605 Q159.399,168.605 158.995,168.557 Q158.591,168.509 158.274,168.403 L158.274,166.725 L158.362,166.725 Q158.617,166.856 159.083,166.975 Q159.549,167.094 160.12,167.094 Q162.062,167.094 163.166,165.929 Q164.269,164.765 164.444,162.717 Q163.627,163.209 162.906,163.42 Q162.186,163.631 161.333,163.631 Q160.524,163.631 159.87,163.473 Q159.215,163.314 158.556,162.857 Q157.782,162.321 157.391,161.495 Q157,160.669 157,159.518 Q157,157.514 158.318,156.257 Q159.637,155 161.535,155 Q162.484,155 163.293,155.294 Q164.102,155.589 164.708,156.178 Q165.455,156.907 165.859,158.054 Q166.264,159.201 166.264,161.021 z M164.488,160.643 Q164.488,159.28 164.207,158.454 Q163.926,157.628 163.434,157.171 Q163.02,156.775 162.546,156.604 Q162.071,156.433 161.518,156.433 Q160.252,156.433 159.518,157.224 Q158.784,158.015 158.784,159.447 Q158.784,160.282 159.021,160.81 Q159.259,161.337 159.821,161.732 Q160.217,162.005 160.691,162.097 Q161.166,162.189 161.746,162.189 Q162.432,162.189 163.135,162.005 Q163.838,161.82 164.453,161.469 Q164.462,161.284 164.475,161.104 Q164.488,160.924 164.488,160.643 z" fill="#000000"/>
      </g>
    </g>
    <g id="svg-subarray-matrix2">
      <g id="svg-subarray-matrix2-items">
        <g>
          <path d="M311.5,12.5 L371.5,12.5 L371.5,72.5 L311.5,72.5 L311.5,12.5 z" fill="#FDFDFD"/>
          <path d="M311.5,12.5 L371.5,12.5 L371.5,72.5 L311.5,72.5 L311.5,12.5 z" fill-opacity="0" stroke="#000000" stroke-width="1"/>
        </g>
        <g>
          <path d="M311.5,72.5 L371.5,72.5 L371.5,132.5 L311.5,132.5 L311.5,72.5 z" fill="#FFFFFF"/>
          <path d="M311.5,72.5 L371.5,72.5 L371.5,132.5 L311.5,132.5 L311.5,72.5 z" fill-opacity="0" stroke="#000000" stroke-width="1"/>
        </g>
        <g>
          <path d="M311.5,132.5 L371.5,132.5 L371.5,192.5 L311.5,192.5 L311.5,132.5 z" fill="#FFFFFF"/>
          <path d="M311.5,132.5 L371.5,132.5 L371.5,192.5 L311.5,192.5 L311.5,132.5 z" fill-opacity="0" stroke="#000000" stroke-width="1"/>
        </g>
        <g>
          <path d="M371.5,12.5 L431.5,12.5 L431.5,72.5 L371.5,72.5 L371.5,12.5 z" fill="#FFFFFF"/>
          <path d="M371.5,12.5 L431.5,12.5 L431.5,72.5 L371.5,72.5 L371.5,12.5 z" fill-opacity="0" stroke="#000000" stroke-width="1"/>
        </g>
        <g>
          <path d="M371.5,72.5 L431.5,72.5 L431.5,132.5 L371.5,132.5 L371.5,72.5 z" fill="#CFDEFF"/>
          <path d="M371.5,72.5 L431.5,72.5 L431.5,132.5 L371.5,132.5 L371.5,72.5 z" fill-opacity="0" stroke="#000000" stroke-width="1"/>
        </g>
        <g>
          <path d="M371.5,132.5 L431.5,132.5 L431.5,192.5 L371.5,192.5 L371.5,132.5 z" fill="#CFDEFF"/>
          <path d="M371.5,132.5 L431.5,132.5 L431.5,192.5 L371.5,192.5 L371.5,132.5 z" fill-opacity="0" stroke="#000000" stroke-width="1"/>
        </g>
        <g>
          <path d="M431.5,12.5 L491.5,12.5 L491.5,72.5 L431.5,72.5 L431.5,12.5 z" fill="#FFFFFF"/>
          <path d="M431.5,12.5 L491.5,12.5 L491.5,72.5 L431.5,72.5 L431.5,12.5 z" fill-opacity="0" stroke="#000000" stroke-width="1"/>
        </g>
        <g>
          <path d="M431.5,72.5 L491.5,72.5 L491.5,132.5 L431.5,132.5 L431.5,72.5 z" fill="#CFDEFF"/>
          <path d="M431.5,72.5 L491.5,72.5 L491.5,132.5 L431.5,132.5 L431.5,72.5 z" fill-opacity="0" stroke="#000000" stroke-width="1"/>
        </g>
        <g>
          <path d="M431.5,132.5 L491.5,132.5 L491.5,192.5 L431.5,192.5 L431.5,132.5 z" fill="#CFDEFF"/>
          <path d="M431.5,132.5 L491.5,132.5 L491.5,192.5 L431.5,192.5 L431.5,132.5 z" fill-opacity="0" stroke="#000000" stroke-width="1"/>
        </g>
      </g>
      <g id="svg-subarray-matrix2-labels">
        <path d="M345.084,49.131 L338,49.131 L338,47.795 L340.725,47.795 L340.725,39.023 L338,39.023 L338,37.828 Q338.554,37.828 339.187,37.736 Q339.819,37.644 340.145,37.468 Q340.549,37.248 340.782,36.91 Q341.015,36.571 341.05,36 L342.412,36 L342.412,47.795 L345.084,47.795 z" fill="#000000"/>
        <path d="M405.859,49.359 L397,49.359 L397,47.522 Q397.923,46.731 398.85,45.94 Q399.777,45.149 400.577,44.367 Q402.265,42.732 402.889,41.77 Q403.513,40.808 403.513,39.691 Q403.513,38.672 402.84,38.096 Q402.168,37.521 400.964,37.521 Q400.164,37.521 399.232,37.802 Q398.301,38.083 397.413,38.663 L397.325,38.663 L397.325,36.817 Q397.949,36.51 398.991,36.255 Q400.032,36 401.008,36 Q403.021,36 404.163,36.971 Q405.306,37.942 405.306,39.604 Q405.306,40.351 405.117,40.997 Q404.928,41.643 404.559,42.223 Q404.216,42.768 403.754,43.295 Q403.293,43.822 402.634,44.464 Q401.693,45.387 400.691,46.252 Q399.689,47.118 398.819,47.856 L405.859,47.856 z" fill="#000000"/>
        <path d="M464.655,43.058 Q465.077,43.436 465.35,44.007 Q465.622,44.578 465.622,45.483 Q465.622,46.38 465.297,47.127 Q464.972,47.874 464.383,48.428 Q463.724,49.043 462.832,49.337 Q461.939,49.632 460.876,49.632 Q459.786,49.632 458.731,49.373 Q457.677,49.113 457,48.806 L457,46.969 L457.132,46.969 Q457.879,47.461 458.89,47.786 Q459.9,48.111 460.841,48.111 Q461.395,48.111 462.019,47.927 Q462.643,47.742 463.029,47.382 Q463.434,46.995 463.631,46.529 Q463.829,46.063 463.829,45.352 Q463.829,44.648 463.605,44.187 Q463.381,43.726 462.985,43.462 Q462.59,43.189 462.027,43.088 Q461.465,42.987 460.814,42.987 L460.023,42.987 L460.023,41.528 L460.639,41.528 Q461.975,41.528 462.77,40.97 Q463.565,40.412 463.565,39.34 Q463.565,38.865 463.363,38.509 Q463.161,38.153 462.801,37.925 Q462.423,37.696 461.992,37.608 Q461.562,37.521 461.017,37.521 Q460.182,37.521 459.241,37.819 Q458.301,38.118 457.466,38.663 L457.378,38.663 L457.378,36.826 Q458.002,36.519 459.043,36.259 Q460.085,36 461.061,36 Q462.019,36 462.748,36.176 Q463.478,36.352 464.066,36.738 Q464.699,37.16 465.024,37.758 Q465.35,38.355 465.35,39.155 Q465.35,40.245 464.581,41.058 Q463.812,41.871 462.766,42.082 L462.766,42.205 Q463.188,42.275 463.732,42.5 Q464.277,42.724 464.655,43.058 z" fill="#000000"/>
        <path d="M344.896,104.404 L342.954,104.404 L342.954,108.087 L341.267,108.087 L341.267,104.404 L335,104.404 L335,102.383 L341.337,95 L342.954,95 L342.954,102.998 L344.896,102.998 z M341.267,102.998 L341.267,97.092 L336.195,102.998 z" fill="#000000"/>
        <path d="M405.525,103.93 Q405.525,104.844 405.191,105.679 Q404.857,106.514 404.277,107.085 Q403.645,107.7 402.77,108.03 Q401.896,108.359 400.744,108.359 Q399.672,108.359 398.679,108.135 Q397.686,107.911 397,107.595 L397,105.74 L397.123,105.74 Q397.844,106.197 398.811,106.518 Q399.777,106.839 400.709,106.839 Q401.333,106.839 401.917,106.663 Q402.502,106.487 402.959,106.048 Q403.346,105.67 403.543,105.143 Q403.741,104.615 403.741,103.921 Q403.741,103.244 403.508,102.778 Q403.275,102.312 402.862,102.031 Q402.405,101.697 401.75,101.561 Q401.096,101.425 400.287,101.425 Q399.514,101.425 398.797,101.53 Q398.081,101.636 397.562,101.741 L397.562,95 L405.438,95 L405.438,96.538 L399.259,96.538 L399.259,100.019 Q399.637,99.983 400.032,99.966 Q400.428,99.948 400.718,99.948 Q401.781,99.948 402.581,100.128 Q403.381,100.309 404.049,100.766 Q404.752,101.249 405.139,102.014 Q405.525,102.778 405.525,103.93 z" fill="#000000"/>
        <path d="M465.264,104.088 Q465.264,106.083 463.95,107.344 Q462.636,108.605 460.729,108.605 Q459.762,108.605 458.971,108.307 Q458.18,108.008 457.573,107.419 Q456.817,106.689 456.409,105.485 Q456,104.281 456,102.585 Q456,100.845 456.374,99.5 Q456.747,98.155 457.564,97.109 Q458.338,96.116 459.56,95.558 Q460.781,95 462.407,95 Q462.926,95 463.277,95.044 Q463.629,95.088 463.989,95.202 L463.989,96.881 L463.901,96.881 Q463.655,96.749 463.159,96.63 Q462.662,96.512 462.144,96.512 Q460.254,96.512 459.129,97.694 Q458.004,98.876 457.819,100.889 Q458.558,100.44 459.274,100.208 Q459.99,99.975 460.931,99.975 Q461.766,99.975 462.403,100.128 Q463.04,100.282 463.708,100.748 Q464.481,101.284 464.873,102.102 Q465.264,102.919 465.264,104.088 z M463.479,104.158 Q463.479,103.341 463.238,102.805 Q462.996,102.269 462.442,101.873 Q462.038,101.592 461.546,101.504 Q461.054,101.416 460.518,101.416 Q459.771,101.416 459.129,101.592 Q458.487,101.768 457.811,102.137 Q457.793,102.33 457.784,102.51 Q457.775,102.69 457.775,102.963 Q457.775,104.352 458.061,105.156 Q458.347,105.96 458.848,106.426 Q459.252,106.812 459.722,106.993 Q460.192,107.173 460.746,107.173 Q462.021,107.173 462.75,106.395 Q463.479,105.617 463.479,104.158 z" fill="#000000"/>
        <path d="M345.956,156.96 L340.032,168.087 L338.151,168.087 L344.453,156.538 L337,156.538 L337,155 L345.956,155 z" fill="#000000"/>
        <path d="M406.299,164.738 Q406.299,166.435 404.976,167.56 Q403.653,168.685 401.649,168.685 Q399.522,168.685 398.261,167.586 Q397,166.487 397,164.773 Q397,163.684 397.633,162.8 Q398.266,161.917 399.417,161.398 L399.417,161.346 Q398.362,160.783 397.857,160.115 Q397.352,159.447 397.352,158.445 Q397.352,156.969 398.564,155.984 Q399.777,155 401.649,155 Q403.609,155 404.778,155.94 Q405.947,156.881 405.947,158.331 Q405.947,159.219 405.394,160.076 Q404.84,160.933 403.768,161.416 L403.768,161.469 Q404.998,161.996 405.648,162.77 Q406.299,163.543 406.299,164.738 z M404.216,158.349 Q404.216,157.408 403.491,156.85 Q402.766,156.292 401.641,156.292 Q400.533,156.292 399.826,156.819 Q399.118,157.347 399.118,158.243 Q399.118,158.876 399.474,159.337 Q399.83,159.799 400.551,160.159 Q400.876,160.317 401.487,160.572 Q402.098,160.827 402.678,160.994 Q403.548,160.414 403.882,159.79 Q404.216,159.166 404.216,158.349 z M404.488,164.905 Q404.488,164.097 404.132,163.609 Q403.776,163.121 402.739,162.629 Q402.326,162.436 401.834,162.269 Q401.342,162.102 400.524,161.803 Q399.733,162.233 399.254,162.972 Q398.775,163.71 398.775,164.642 Q398.775,165.828 399.593,166.602 Q400.41,167.375 401.667,167.375 Q402.95,167.375 403.719,166.716 Q404.488,166.057 404.488,164.905 z" fill="#000000"/>
        <path d="M465.264,161.021 Q465.264,162.734 464.873,164.132 Q464.481,165.529 463.69,166.514 Q462.891,167.516 461.687,168.061 Q460.482,168.605 458.856,168.605 Q458.399,168.605 457.995,168.557 Q457.591,168.509 457.274,168.403 L457.274,166.725 L457.362,166.725 Q457.617,166.856 458.083,166.975 Q458.549,167.094 459.12,167.094 Q461.062,167.094 462.166,165.929 Q463.269,164.765 463.444,162.717 Q462.627,163.209 461.906,163.42 Q461.186,163.631 460.333,163.631 Q459.524,163.631 458.87,163.473 Q458.215,163.314 457.556,162.857 Q456.782,162.321 456.391,161.495 Q456,160.669 456,159.518 Q456,157.514 457.318,156.257 Q458.637,155 460.535,155 Q461.484,155 462.293,155.294 Q463.102,155.589 463.708,156.178 Q464.455,156.907 464.859,158.054 Q465.264,159.201 465.264,161.021 z M463.488,160.643 Q463.488,159.28 463.207,158.454 Q462.926,157.628 462.434,157.171 Q462.021,156.775 461.546,156.604 Q461.071,156.433 460.518,156.433 Q459.252,156.433 458.518,157.224 Q457.784,158.015 457.784,159.447 Q457.784,160.282 458.021,160.81 Q458.259,161.337 458.821,161.732 Q459.217,162.005 459.691,162.097 Q460.166,162.189 460.746,162.189 Q461.432,162.189 462.135,162.005 Q462.838,161.82 463.453,161.469 Q463.462,161.284 463.475,161.104 Q463.488,160.924 463.488,160.643 z" fill="#000000"/>
      </g>
    </g>
    <g id="svg-subarray-arrow">
      <path d="M216.5,102.5 L276.5,102.5" fill-opacity="0" stroke="#000000" stroke-width="1"/>
      <path d="M276.5,105.5 L284.5,102.5 L276.5,99.5 z" fill="#000000" fill-opacity="1" stroke="#000000" stroke-width="1" stroke-opacity="1"/>
    </g>
  </g>
</svg>
