<?xml version="1.0" encoding="UTF-8"?>
<!DOCTYPE svg PUBLIC "-//W3C//DTD SVG 1.1//EN" "http://www.w3.org/Graphics/SVG/1.1/DTD/svg11.dtd">
<svg version="1.1" xmlns="http://www.w3.org/2000/svg" xmlns:xlink="http://www.w3.org/1999/xlink" x="0" y="0" width="424" height="155" viewBox="0, 0, 552, 200">
  <g id="svg-reshape">
    <g id="svg-reshape-matrix1">
      <g id="svg-reshape-matrix1-items">
        <g>
          <path d="M13.5,13.5 L73.5,13.5 L73.5,73.5 L13.5,73.5 L13.5,13.5 z" fill="#CFDEFF"/>
          <path d="M13.5,13.5 L73.5,13.5 L73.5,73.5 L13.5,73.5 L13.5,13.5 z" fill-opacity="0" stroke="#000000" stroke-width="1"/>
        </g>
        <g>
          <path d="M13.5,73.5 L73.5,73.5 L73.5,133.5 L13.5,133.5 L13.5,73.5 z" fill="#CFDEFF"/>
          <path d="M13.5,73.5 L73.5,73.5 L73.5,133.5 L13.5,133.5 L13.5,73.5 z" fill-opacity="0" stroke="#000000" stroke-width="1"/>
        </g>
        <g>
          <path d="M13.5,133.5 L73.5,133.5 L73.5,193.5 L13.5,193.5 L13.5,133.5 z" fill="#CFDEFF"/>
          <path d="M13.5,133.5 L73.5,133.5 L73.5,193.5 L13.5,193.5 L13.5,133.5 z" fill-opacity="0" stroke="#000000" stroke-width="1"/>
        </g>
        <g>
          <path d="M73.5,13.5 L133.5,13.5 L133.5,73.5 L73.5,73.5 L73.5,13.5 z" fill="#CFDEFF"/>
          <path d="M73.5,13.5 L133.5,13.5 L133.5,73.5 L73.5,73.5 L73.5,13.5 z" fill-opacity="0" stroke="#000000" stroke-width="1"/>
        </g>
        <g>
          <path d="M73.5,73.5 L133.5,73.5 L133.5,133.5 L73.5,133.5 L73.5,73.5 z" fill="#CFDEFF"/>
          <path d="M73.5,73.5 L133.5,73.5 L133.5,133.5 L73.5,133.5 L73.5,73.5 z" fill-opacity="0" stroke="#000000" stroke-width="1"/>
        </g>
        <g>
          <path d="M73.5,133.5 L133.5,133.5 L133.5,193.5 L73.5,193.5 L73.5,133.5 z" fill="#CFDEFF"/>
          <path d="M73.5,133.5 L133.5,133.5 L133.5,193.5 L73.5,193.5 L73.5,133.5 z" fill-opacity="0" stroke="#000000" stroke-width="1"/>
        </g>
        <g>
          <path d="M133.5,13.5 L193.5,13.5 L193.5,73.5 L133.5,73.5 L133.5,13.5 z" fill="#CFDEFF"/>
          <path d="M133.5,13.5 L193.5,13.5 L193.5,73.5 L133.5,73.5 L133.5,13.5 z" fill-opacity="0" stroke="#000000" stroke-width="1"/>
        </g>
        <g>
          <path d="M133.5,73.5 L193.5,73.5 L193.5,133.5 L133.5,133.5 L133.5,73.5 z" fill="#CFDEFF"/>
          <path d="M133.5,73.5 L193.5,73.5 L193.5,133.5 L133.5,133.5 L133.5,73.5 z" fill-opacity="0" stroke="#000000" stroke-width="1"/>
        </g>
        <g>
          <path d="M133.5,133.5 L193.5,133.5 L193.5,193.5 L133.5,193.5 L133.5,133.5 z" fill="#CFDEFF"/>
          <path d="M133.5,133.5 L193.5,133.5 L193.5,193.5 L133.5,193.5 L133.5,133.5 z" fill-opacity="0" stroke="#000000" stroke-width="1"/>
        </g>
      </g>
      <g id="svg-reshape-matrix1-labels">
        <path d="M47.084,50.131 L40,50.131 L40,48.795 L42.725,48.795 L42.725,40.023 L40,40.023 L40,38.828 Q40.554,38.828 41.187,38.736 Q41.819,38.644 42.145,38.468 Q42.549,38.248 42.782,37.91 Q43.015,37.571 43.05,37 L44.412,37 L44.412,48.795 L47.084,48.795 z" fill="#000000"/>
        <path d="M107.859,50.359 L99,50.359 L99,48.522 Q99.923,47.731 100.85,46.94 Q101.777,46.149 102.577,45.367 Q104.265,43.732 104.889,42.77 Q105.513,41.808 105.513,40.691 Q105.513,39.672 104.84,39.096 Q104.168,38.521 102.964,38.521 Q102.164,38.521 101.232,38.802 Q100.301,39.083 99.413,39.663 L99.325,39.663 L99.325,37.817 Q99.949,37.51 100.991,37.255 Q102.032,37 103.008,37 Q105.021,37 106.163,37.971 Q107.306,38.942 107.306,40.604 Q107.306,41.351 107.117,41.997 Q106.928,42.643 106.559,43.223 Q106.216,43.768 105.754,44.295 Q105.293,44.822 104.634,45.464 Q103.693,46.387 102.691,47.252 Q101.689,48.118 100.819,48.856 L107.859,48.856 z" fill="#000000"/>
        <path d="M166.655,44.058 Q167.077,44.436 167.35,45.007 Q167.622,45.578 167.622,46.483 Q167.622,47.38 167.297,48.127 Q166.972,48.874 166.383,49.428 Q165.724,50.043 164.832,50.337 Q163.939,50.632 162.876,50.632 Q161.786,50.632 160.731,50.373 Q159.677,50.113 159,49.806 L159,47.969 L159.132,47.969 Q159.879,48.461 160.89,48.786 Q161.9,49.111 162.841,49.111 Q163.395,49.111 164.019,48.927 Q164.643,48.742 165.029,48.382 Q165.434,47.995 165.631,47.529 Q165.829,47.063 165.829,46.352 Q165.829,45.648 165.605,45.187 Q165.381,44.726 164.985,44.462 Q164.59,44.189 164.027,44.088 Q163.465,43.987 162.814,43.987 L162.023,43.987 L162.023,42.528 L162.639,42.528 Q163.975,42.528 164.77,41.97 Q165.565,41.412 165.565,40.34 Q165.565,39.865 165.363,39.509 Q165.161,39.153 164.801,38.925 Q164.423,38.696 163.992,38.608 Q163.562,38.521 163.017,38.521 Q162.182,38.521 161.241,38.819 Q160.301,39.118 159.466,39.663 L159.378,39.663 L159.378,37.826 Q160.002,37.519 161.043,37.259 Q162.085,37 163.061,37 Q164.019,37 164.748,37.176 Q165.478,37.352 166.066,37.738 Q166.699,38.16 167.024,38.758 Q167.35,39.355 167.35,40.155 Q167.35,41.245 166.581,42.058 Q165.812,42.871 164.766,43.082 L164.766,43.205 Q165.188,43.275 165.732,43.5 Q166.277,43.724 166.655,44.058 z" fill="#000000"/>
        <path d="M46.896,105.404 L44.954,105.404 L44.954,109.087 L43.267,109.087 L43.267,105.404 L37,105.404 L37,103.383 L43.337,96 L44.954,96 L44.954,103.998 L46.896,103.998 z M43.267,103.998 L43.267,98.092 L38.195,103.998 z" fill="#000000"/>
        <path d="M107.525,104.93 Q107.525,105.844 107.191,106.679 Q106.857,107.514 106.277,108.085 Q105.645,108.7 104.77,109.03 Q103.896,109.359 102.744,109.359 Q101.672,109.359 100.679,109.135 Q99.686,108.911 99,108.595 L99,106.74 L99.123,106.74 Q99.844,107.197 100.811,107.518 Q101.777,107.839 102.709,107.839 Q103.333,107.839 103.917,107.663 Q104.502,107.487 104.959,107.048 Q105.346,106.67 105.543,106.143 Q105.741,105.615 105.741,104.921 Q105.741,104.244 105.508,103.778 Q105.275,103.312 104.862,103.031 Q104.405,102.697 103.75,102.561 Q103.096,102.425 102.287,102.425 Q101.514,102.425 100.797,102.53 Q100.081,102.636 99.562,102.741 L99.562,96 L107.438,96 L107.438,97.538 L101.259,97.538 L101.259,101.019 Q101.637,100.983 102.032,100.966 Q102.428,100.948 102.718,100.948 Q103.781,100.948 104.581,101.128 Q105.381,101.309 106.049,101.766 Q106.752,102.249 107.139,103.014 Q107.525,103.778 107.525,104.93 z" fill="#000000"/>
        <path d="M167.264,105.088 Q167.264,107.083 165.95,108.344 Q164.636,109.605 162.729,109.605 Q161.762,109.605 160.971,109.307 Q160.18,109.008 159.573,108.419 Q158.817,107.689 158.409,106.485 Q158,105.281 158,103.585 Q158,101.845 158.374,100.5 Q158.747,99.155 159.564,98.109 Q160.338,97.116 161.56,96.558 Q162.781,96 164.407,96 Q164.926,96 165.277,96.044 Q165.629,96.088 165.989,96.202 L165.989,97.881 L165.901,97.881 Q165.655,97.749 165.159,97.63 Q164.662,97.512 164.144,97.512 Q162.254,97.512 161.129,98.694 Q160.004,99.876 159.819,101.889 Q160.558,101.44 161.274,101.208 Q161.99,100.975 162.931,100.975 Q163.766,100.975 164.403,101.128 Q165.04,101.282 165.708,101.748 Q166.481,102.284 166.873,103.102 Q167.264,103.919 167.264,105.088 z M165.479,105.158 Q165.479,104.341 165.238,103.805 Q164.996,103.269 164.442,102.873 Q164.038,102.592 163.546,102.504 Q163.054,102.416 162.518,102.416 Q161.771,102.416 161.129,102.592 Q160.487,102.768 159.811,103.137 Q159.793,103.33 159.784,103.51 Q159.775,103.69 159.775,103.963 Q159.775,105.352 160.061,106.156 Q160.347,106.96 160.848,107.426 Q161.252,107.812 161.722,107.993 Q162.192,108.173 162.746,108.173 Q164.021,108.173 164.75,107.395 Q165.479,106.617 165.479,105.158 z" fill="#000000"/>
        <path d="M47.956,157.96 L42.032,169.087 L40.151,169.087 L46.453,157.538 L39,157.538 L39,156 L47.956,156 z" fill="#000000"/>
        <path d="M108.299,165.738 Q108.299,167.435 106.976,168.56 Q105.653,169.685 103.649,169.685 Q101.522,169.685 100.261,168.586 Q99,167.487 99,165.773 Q99,164.684 99.633,163.8 Q100.266,162.917 101.417,162.398 L101.417,162.346 Q100.362,161.783 99.857,161.115 Q99.352,160.447 99.352,159.445 Q99.352,157.969 100.564,156.984 Q101.777,156 103.649,156 Q105.609,156 106.778,156.94 Q107.947,157.881 107.947,159.331 Q107.947,160.219 107.394,161.076 Q106.84,161.933 105.768,162.416 L105.768,162.469 Q106.998,162.996 107.648,163.77 Q108.299,164.543 108.299,165.738 z M106.216,159.349 Q106.216,158.408 105.491,157.85 Q104.766,157.292 103.641,157.292 Q102.533,157.292 101.826,157.819 Q101.118,158.347 101.118,159.243 Q101.118,159.876 101.474,160.337 Q101.83,160.799 102.551,161.159 Q102.876,161.317 103.487,161.572 Q104.098,161.827 104.678,161.994 Q105.548,161.414 105.882,160.79 Q106.216,160.166 106.216,159.349 z M106.488,165.905 Q106.488,165.097 106.132,164.609 Q105.776,164.121 104.739,163.629 Q104.326,163.436 103.834,163.269 Q103.342,163.102 102.524,162.803 Q101.733,163.233 101.254,163.972 Q100.775,164.71 100.775,165.642 Q100.775,166.828 101.593,167.602 Q102.41,168.375 103.667,168.375 Q104.95,168.375 105.719,167.716 Q106.488,167.057 106.488,165.905 z" fill="#000000"/>
        <path d="M167.264,162.021 Q167.264,163.734 166.873,165.132 Q166.481,166.529 165.69,167.514 Q164.891,168.516 163.687,169.061 Q162.482,169.605 160.856,169.605 Q160.399,169.605 159.995,169.557 Q159.591,169.509 159.274,169.403 L159.274,167.725 L159.362,167.725 Q159.617,167.856 160.083,167.975 Q160.549,168.094 161.12,168.094 Q163.062,168.094 164.166,166.929 Q165.269,165.765 165.444,163.717 Q164.627,164.209 163.906,164.42 Q163.186,164.631 162.333,164.631 Q161.524,164.631 160.87,164.473 Q160.215,164.314 159.556,163.857 Q158.782,163.321 158.391,162.495 Q158,161.669 158,160.518 Q158,158.514 159.318,157.257 Q160.637,156 162.535,156 Q163.484,156 164.293,156.294 Q165.102,156.589 165.708,157.178 Q166.455,157.907 166.859,159.054 Q167.264,160.201 167.264,162.021 z M165.488,161.643 Q165.488,160.28 165.207,159.454 Q164.926,158.628 164.434,158.171 Q164.021,157.775 163.546,157.604 Q163.071,157.433 162.518,157.433 Q161.252,157.433 160.518,158.224 Q159.784,159.015 159.784,160.447 Q159.784,161.282 160.021,161.81 Q160.259,162.337 160.821,162.732 Q161.217,163.005 161.691,163.097 Q162.166,163.189 162.746,163.189 Q163.432,163.189 164.135,163.005 Q164.838,162.82 165.453,162.469 Q165.462,162.284 165.475,162.104 Q165.488,161.924 165.488,161.643 z" fill="#000000"/>
      </g>
    </g>
    <g id="svg-reshape-tensor1">
      <g id="svg-reshape-vector3">
        <g id="svg-reshape-vector3-items">
          <g>
            <path d="M360.5,43.5 L420.5,43.5 L420.5,103.5 L360.5,103.5 L360.5,43.5 z" fill="#CFDEFF"/>
            <path d="M360.5,43.5 L420.5,43.5 L420.5,103.5 L360.5,103.5 L360.5,43.5 z" fill-opacity="0" stroke="#000000" stroke-width="1"/>
          </g>
          <g>
            <path d="M420.5,43.5 L480.5,43.5 L480.5,103.5 L420.5,103.5 L420.5,43.5 z" fill="#CFDEFF"/>
            <path d="M420.5,43.5 L480.5,43.5 L480.5,103.5 L420.5,103.5 L420.5,43.5 z" fill-opacity="0" stroke="#000000" stroke-width="1"/>
          </g>
          <g>
            <path d="M480.5,43.5 L540.5,43.5 L540.5,103.5 L480.5,103.5 L480.5,43.5 z" fill="#CFDEFF"/>
            <path d="M480.5,43.5 L540.5,43.5 L540.5,103.5 L480.5,103.5 L480.5,43.5 z" fill-opacity="0" stroke="#000000" stroke-width="1"/>
          </g>
        </g>
        <g id="svg-reshape-vector3-labels">
          <path d="M515.535,72.67 Q515.535,74.384 515.144,75.781 Q514.753,77.179 513.962,78.163 Q513.162,79.165 511.958,79.71 Q510.754,80.255 509.128,80.255 Q508.671,80.255 508.267,80.207 Q507.862,80.158 507.546,80.053 L507.546,78.374 L507.634,78.374 Q507.889,78.506 508.354,78.625 Q508.82,78.743 509.392,78.743 Q511.334,78.743 512.437,77.579 Q513.54,76.414 513.716,74.366 Q512.898,74.858 512.178,75.069 Q511.457,75.28 510.604,75.28 Q509.796,75.28 509.141,75.122 Q508.486,74.964 507.827,74.507 Q507.054,73.971 506.663,73.145 Q506.271,72.318 506.271,71.167 Q506.271,69.163 507.59,67.906 Q508.908,66.649 510.807,66.649 Q511.756,66.649 512.564,66.944 Q513.373,67.238 513.979,67.827 Q514.727,68.557 515.131,69.704 Q515.535,70.851 515.535,72.67 z M513.76,72.292 Q513.76,70.93 513.479,70.104 Q513.197,69.277 512.705,68.82 Q512.292,68.425 511.817,68.253 Q511.343,68.082 510.789,68.082 Q509.523,68.082 508.79,68.873 Q508.056,69.664 508.056,71.097 Q508.056,71.932 508.293,72.459 Q508.53,72.986 509.093,73.382 Q509.488,73.654 509.963,73.747 Q510.438,73.839 511.018,73.839 Q511.703,73.839 512.406,73.654 Q513.109,73.47 513.725,73.118 Q513.733,72.934 513.747,72.753 Q513.76,72.573 513.76,72.292 z" fill="#000000"/>
          <path d="M393.588,68.373 L387.664,79.5 L385.783,79.5 L392.085,67.951 L384.632,67.951 L384.632,66.413 L393.588,66.413 z" fill="#000000"/>
          <path d="M454.649,76.353 Q454.649,78.049 453.327,79.174 Q452.004,80.299 450,80.299 Q447.873,80.299 446.612,79.2 Q445.351,78.102 445.351,76.388 Q445.351,75.298 445.983,74.415 Q446.616,73.531 447.768,73.013 L447.768,72.96 Q446.713,72.397 446.208,71.729 Q445.702,71.062 445.702,70.06 Q445.702,68.583 446.915,67.599 Q448.128,66.614 450,66.614 Q451.96,66.614 453.129,67.555 Q454.298,68.495 454.298,69.945 Q454.298,70.833 453.744,71.69 Q453.19,72.547 452.118,73.03 L452.118,73.083 Q453.349,73.61 453.999,74.384 Q454.649,75.157 454.649,76.353 z M452.566,69.963 Q452.566,69.022 451.841,68.464 Q451.116,67.906 449.991,67.906 Q448.884,67.906 448.176,68.434 Q447.469,68.961 447.469,69.857 Q447.469,70.49 447.825,70.952 Q448.181,71.413 448.901,71.773 Q449.227,71.932 449.837,72.187 Q450.448,72.441 451.028,72.608 Q451.898,72.028 452.232,71.404 Q452.566,70.78 452.566,69.963 z M452.839,76.52 Q452.839,75.711 452.483,75.223 Q452.127,74.735 451.09,74.243 Q450.677,74.05 450.185,73.883 Q449.692,73.716 448.875,73.417 Q448.084,73.848 447.605,74.586 Q447.126,75.324 447.126,76.256 Q447.126,77.442 447.943,78.216 Q448.761,78.989 450.018,78.989 Q451.301,78.989 452.07,78.33 Q452.839,77.671 452.839,76.52 z" fill="#000000"/>
        </g>
      </g>
      <g id="svg-reshape-vector2">
        <g id="svg-reshape-vector2-items">
          <g>
            <path d="M325.5,74.5 L385.5,74.5 L385.5,134.5 L325.5,134.5 L325.5,74.5 z" fill="#CFDEFF"/>
            <path d="M325.5,74.5 L385.5,74.5 L385.5,134.5 L325.5,134.5 L325.5,74.5 z" fill-opacity="0" stroke="#000000" stroke-width="1"/>
          </g>
          <g>
            <path d="M385.5,74.5 L445.5,74.5 L445.5,134.5 L385.5,134.5 L385.5,74.5 z" fill="#CFDEFF"/>
            <path d="M385.5,74.5 L445.5,74.5 L445.5,134.5 L385.5,134.5 L385.5,74.5 z" fill-opacity="0" stroke="#000000" stroke-width="1"/>
          </g>
          <g>
            <path d="M445.5,74.5 L505.5,74.5 L505.5,134.5 L445.5,134.5 L445.5,74.5 z" fill="#CFDEFF"/>
            <path d="M445.5,74.5 L505.5,74.5 L505.5,134.5 L445.5,134.5 L445.5,74.5 z" fill-opacity="0" stroke="#000000" stroke-width="1"/>
          </g>
        </g>
        <g id="svg-reshape-vector2-labels">
          <path d="M479.746,106.755 Q479.746,108.75 478.432,110.011 Q477.118,111.272 475.211,111.272 Q474.244,111.272 473.453,110.974 Q472.662,110.675 472.056,110.086 Q471.3,109.356 470.891,108.152 Q470.482,106.948 470.482,105.252 Q470.482,103.512 470.856,102.167 Q471.229,100.822 472.047,99.776 Q472.82,98.783 474.042,98.225 Q475.264,97.667 476.89,97.667 Q477.408,97.667 477.76,97.711 Q478.111,97.755 478.472,97.869 L478.472,99.548 L478.384,99.548 Q478.138,99.416 477.641,99.297 Q477.145,99.179 476.626,99.179 Q474.736,99.179 473.611,100.361 Q472.486,101.543 472.302,103.556 Q473.04,103.107 473.756,102.875 Q474.473,102.642 475.413,102.642 Q476.248,102.642 476.885,102.795 Q477.522,102.949 478.19,103.415 Q478.964,103.951 479.355,104.769 Q479.746,105.586 479.746,106.755 z M477.962,106.825 Q477.962,106.008 477.72,105.472 Q477.479,104.936 476.925,104.54 Q476.521,104.259 476.028,104.171 Q475.536,104.083 475,104.083 Q474.253,104.083 473.611,104.259 Q472.97,104.435 472.293,104.804 Q472.275,104.997 472.267,105.177 Q472.258,105.357 472.258,105.63 Q472.258,107.019 472.543,107.823 Q472.829,108.627 473.33,109.093 Q473.734,109.479 474.205,109.66 Q474.675,109.84 475.229,109.84 Q476.503,109.84 477.232,109.062 Q477.962,108.284 477.962,106.825 z" fill="#000000"/>
          <path d="M358.852,107.317 L356.909,107.317 L356.909,111 L355.222,111 L355.222,107.317 L348.955,107.317 L348.955,105.296 L355.292,97.913 L356.909,97.913 L356.909,105.911 L358.852,105.911 z M355.222,105.911 L355.222,100.005 L350.15,105.911 z" fill="#000000"/>
          <path d="M420.447,106.843 Q420.447,107.757 420.113,108.592 Q419.779,109.427 419.199,109.998 Q418.566,110.613 417.692,110.943 Q416.817,111.272 415.666,111.272 Q414.594,111.272 413.601,111.048 Q412.607,110.824 411.922,110.508 L411.922,108.653 L412.045,108.653 Q412.766,109.11 413.732,109.431 Q414.699,109.752 415.631,109.752 Q416.255,109.752 416.839,109.576 Q417.424,109.4 417.881,108.961 Q418.268,108.583 418.465,108.056 Q418.663,107.528 418.663,106.834 Q418.663,106.157 418.43,105.691 Q418.197,105.226 417.784,104.944 Q417.327,104.61 416.672,104.474 Q416.018,104.338 415.209,104.338 Q414.436,104.338 413.719,104.443 Q413.003,104.549 412.484,104.654 L412.484,97.913 L420.359,97.913 L420.359,99.451 L414.181,99.451 L414.181,102.932 Q414.559,102.896 414.954,102.879 Q415.35,102.861 415.64,102.861 Q416.703,102.861 417.503,103.042 Q418.303,103.222 418.971,103.679 Q419.674,104.162 420.061,104.927 Q420.447,105.691 420.447,106.843 z" fill="#000000"/>
        </g>
      </g>
      <g id="svg-reshape-vector1">
        <g id="svg-reshape-vector1-items">
          <g>
            <path d="M289.5,105.5 L349.5,105.5 L349.5,165.5 L289.5,165.5 L289.5,105.5 z" fill="#CFDEFF"/>
            <path d="M289.5,105.5 L349.5,105.5 L349.5,165.5 L289.5,165.5 L289.5,105.5 z" fill-opacity="0" stroke="#000000" stroke-width="1"/>
          </g>
          <g>
            <path d="M349.5,105.5 L409.5,105.5 L409.5,165.5 L349.5,165.5 L349.5,105.5 z" fill="#CFDEFF"/>
            <path d="M349.5,105.5 L409.5,105.5 L409.5,165.5 L349.5,165.5 L349.5,105.5 z" fill-opacity="0" stroke="#000000" stroke-width="1"/>
          </g>
          <g>
            <path d="M409.5,105.5 L469.5,105.5 L469.5,165.5 L409.5,165.5 L409.5,105.5 z" fill="#CFDEFF"/>
            <path d="M409.5,105.5 L469.5,105.5 L469.5,165.5 L409.5,165.5 L409.5,105.5 z" fill-opacity="0" stroke="#000000" stroke-width="1"/>
          </g>
        </g>
        <g id="svg-reshape-vector1-labels">
          <path d="M320.806,142 L313.722,142 L313.722,140.664 L316.446,140.664 L316.446,131.893 L313.722,131.893 L313.722,130.697 Q314.275,130.697 314.908,130.605 Q315.541,130.513 315.866,130.337 Q316.271,130.117 316.503,129.779 Q316.736,129.44 316.771,128.869 L318.134,128.869 L318.134,140.664 L320.806,140.664 z" fill="#000000"/>
          <path d="M383.553,142 L374.693,142 L374.693,140.163 Q375.616,139.372 376.543,138.581 Q377.471,137.79 378.271,137.008 Q379.958,135.373 380.582,134.411 Q381.206,133.448 381.206,132.332 Q381.206,131.312 380.534,130.737 Q379.861,130.161 378.657,130.161 Q377.857,130.161 376.926,130.442 Q375.994,130.724 375.106,131.304 L375.019,131.304 L375.019,129.458 Q375.643,129.15 376.684,128.896 Q377.726,128.641 378.701,128.641 Q380.714,128.641 381.856,129.612 Q382.999,130.583 382.999,132.244 Q382.999,132.991 382.81,133.637 Q382.621,134.283 382.252,134.863 Q381.909,135.408 381.448,135.936 Q380.986,136.463 380.327,137.104 Q379.387,138.027 378.385,138.893 Q377.383,139.759 376.513,140.497 L383.553,140.497 z" fill="#000000"/>
          <path d="M443.401,135.698 Q443.823,136.076 444.096,136.647 Q444.368,137.219 444.368,138.124 Q444.368,139.021 444.043,139.768 Q443.718,140.515 443.129,141.068 Q442.47,141.684 441.578,141.978 Q440.686,142.272 439.622,142.272 Q438.532,142.272 437.478,142.013 Q436.423,141.754 435.746,141.446 L435.746,139.609 L435.878,139.609 Q436.625,140.102 437.636,140.427 Q438.646,140.752 439.587,140.752 Q440.141,140.752 440.765,140.567 Q441.389,140.383 441.775,140.022 Q442.18,139.636 442.377,139.17 Q442.575,138.704 442.575,137.992 Q442.575,137.289 442.351,136.828 Q442.127,136.366 441.731,136.103 Q441.336,135.83 440.773,135.729 Q440.211,135.628 439.561,135.628 L438.77,135.628 L438.77,134.169 L439.385,134.169 Q440.721,134.169 441.516,133.611 Q442.312,133.053 442.312,131.98 Q442.312,131.506 442.109,131.15 Q441.907,130.794 441.547,130.565 Q441.169,130.337 440.738,130.249 Q440.308,130.161 439.763,130.161 Q438.928,130.161 437.987,130.46 Q437.047,130.759 436.212,131.304 L436.124,131.304 L436.124,129.467 Q436.748,129.159 437.79,128.9 Q438.831,128.641 439.807,128.641 Q440.765,128.641 441.494,128.816 Q442.224,128.992 442.812,129.379 Q443.445,129.801 443.771,130.398 Q444.096,130.996 444.096,131.796 Q444.096,132.886 443.327,133.699 Q442.558,134.512 441.512,134.723 L441.512,134.846 Q441.934,134.916 442.479,135.14 Q443.023,135.364 443.401,135.698 z" fill="#000000"/>
        </g>
      </g>
    </g>
    <g id="svg-reshape-arrow">
      <path d="M206.5,104.5 L266.5,104.5" fill-opacity="0" stroke="#000000" stroke-width="1"/>
      <path d="M266.5,107.5 L274.5,104.5 L266.5,101.5 z" fill="#000000" fill-opacity="1" stroke="#000000" stroke-width="1" stroke-opacity="1"/>
    </g>
  </g>
</svg>
