<?xml version="1.0" encoding="UTF-8"?>
<!DOCTYPE svg PUBLIC "-//W3C//DTD SVG 1.1//EN" "http://www.w3.org/Graphics/SVG/1.1/DTD/svg11.dtd">
<svg version="1.1" xmlns="http://www.w3.org/2000/svg" xmlns:xlink="http://www.w3.org/1999/xlink" x="0" y="0" width="359" height="155" viewBox="0, 0, 468, 200">
  <g id="svg-transpose">
    <g id="svg-transpose-arrow">
      <path d="M214.5,102.5 L250.833,102.5" fill-opacity="0" stroke="#000000" stroke-width="1"/>
      <path d="M250.833,105.5 L258.833,102.5 L250.833,99.5 z" fill="#000000" fill-opacity="1" stroke="#000000" stroke-width="1" stroke-opacity="1"/>
    </g>
    <g id="svg-transpose-matrix1">
      <g id="svg-transpose-matrix1-items">
        <g>
          <path d="M13.5,12.5 L73.5,12.5 L73.5,72.5 L13.5,72.5 L13.5,12.5 z" fill="#CFDEFF"/>
          <path d="M13.5,12.5 L73.5,12.5 L73.5,72.5 L13.5,72.5 L13.5,12.5 z" fill-opacity="0" stroke="#000000" stroke-width="1"/>
        </g>
        <g>
          <path d="M13.5,72.5 L73.5,72.5 L73.5,132.5 L13.5,132.5 L13.5,72.5 z" fill="#CFDEFF"/>
          <path d="M13.5,72.5 L73.5,72.5 L73.5,132.5 L13.5,132.5 L13.5,72.5 z" fill-opacity="0" stroke="#000000" stroke-width="1"/>
        </g>
        <g>
          <path d="M13.5,132.5 L73.5,132.5 L73.5,192.5 L13.5,192.5 L13.5,132.5 z" fill="#CFDEFF"/>
          <path d="M13.5,132.5 L73.5,132.5 L73.5,192.5 L13.5,192.5 L13.5,132.5 z" fill-opacity="0" stroke="#000000" stroke-width="1"/>
        </g>
        <g>
          <path d="M73.5,12.5 L133.5,12.5 L133.5,72.5 L73.5,72.5 L73.5,12.5 z" fill="#CFDEFF"/>
          <path d="M73.5,12.5 L133.5,12.5 L133.5,72.5 L73.5,72.5 L73.5,12.5 z" fill-opacity="0" stroke="#000000" stroke-width="1"/>
        </g>
        <g>
          <path d="M73.5,72.5 L133.5,72.5 L133.5,132.5 L73.5,132.5 L73.5,72.5 z" fill="#CFDEFF"/>
          <path d="M73.5,72.5 L133.5,72.5 L133.5,132.5 L73.5,132.5 L73.5,72.5 z" fill-opacity="0" stroke="#000000" stroke-width="1"/>
        </g>
        <g>
          <path d="M73.5,132.5 L133.5,132.5 L133.5,192.5 L73.5,192.5 L73.5,132.5 z" fill="#CFDEFF"/>
          <path d="M73.5,132.5 L133.5,132.5 L133.5,192.5 L73.5,192.5 L73.5,132.5 z" fill-opacity="0" stroke="#000000" stroke-width="1"/>
        </g>
        <g>
          <path d="M133.5,12.5 L193.5,12.5 L193.5,72.5 L133.5,72.5 L133.5,12.5 z" fill="#CFDEFF"/>
          <path d="M133.5,12.5 L193.5,12.5 L193.5,72.5 L133.5,72.5 L133.5,12.5 z" fill-opacity="0" stroke="#000000" stroke-width="1"/>
        </g>
        <g>
          <path d="M133.5,72.5 L193.5,72.5 L193.5,132.5 L133.5,132.5 L133.5,72.5 z" fill="#CFDEFF"/>
          <path d="M133.5,72.5 L193.5,72.5 L193.5,132.5 L133.5,132.5 L133.5,72.5 z" fill-opacity="0" stroke="#000000" stroke-width="1"/>
        </g>
        <g>
          <path d="M133.5,132.5 L193.5,132.5 L193.5,192.5 L133.5,192.5 L133.5,132.5 z" fill="#CFDEFF"/>
          <path d="M133.5,132.5 L193.5,132.5 L193.5,192.5 L133.5,192.5 L133.5,132.5 z" fill-opacity="0" stroke="#000000" stroke-width="1"/>
        </g>
      </g>
      <g id="svg-transpose-matrix1-labels">
        <path d="M47.084,49.131 L40,49.131 L40,47.795 L42.725,47.795 L42.725,39.023 L40,39.023 L40,37.828 Q40.554,37.828 41.187,37.736 Q41.819,37.644 42.145,37.468 Q42.549,37.248 42.782,36.91 Q43.015,36.571 43.05,36 L44.412,36 L44.412,47.795 L47.084,47.795 z" fill="#000000"/>
        <path d="M107.859,49.359 L99,49.359 L99,47.522 Q99.923,46.731 100.85,45.94 Q101.777,45.149 102.577,44.367 Q104.265,42.732 104.889,41.77 Q105.513,40.808 105.513,39.691 Q105.513,38.672 104.84,38.096 Q104.168,37.521 102.964,37.521 Q102.164,37.521 101.232,37.802 Q100.301,38.083 99.413,38.663 L99.325,38.663 L99.325,36.817 Q99.949,36.51 100.991,36.255 Q102.032,36 103.008,36 Q105.021,36 106.163,36.971 Q107.306,37.942 107.306,39.604 Q107.306,40.351 107.117,40.997 Q106.928,41.643 106.559,42.223 Q106.216,42.768 105.754,43.295 Q105.293,43.822 104.634,44.464 Q103.693,45.387 102.691,46.252 Q101.689,47.118 100.819,47.856 L107.859,47.856 z" fill="#000000"/>
        <path d="M166.655,43.058 Q167.077,43.436 167.35,44.007 Q167.622,44.578 167.622,45.483 Q167.622,46.38 167.297,47.127 Q166.972,47.874 166.383,48.428 Q165.724,49.043 164.832,49.337 Q163.939,49.632 162.876,49.632 Q161.786,49.632 160.731,49.373 Q159.677,49.113 159,48.806 L159,46.969 L159.132,46.969 Q159.879,47.461 160.89,47.786 Q161.9,48.111 162.841,48.111 Q163.395,48.111 164.019,47.927 Q164.643,47.742 165.029,47.382 Q165.434,46.995 165.631,46.529 Q165.829,46.063 165.829,45.352 Q165.829,44.648 165.605,44.187 Q165.381,43.726 164.985,43.462 Q164.59,43.189 164.027,43.088 Q163.465,42.987 162.814,42.987 L162.023,42.987 L162.023,41.528 L162.639,41.528 Q163.975,41.528 164.77,40.97 Q165.565,40.412 165.565,39.34 Q165.565,38.865 165.363,38.509 Q165.161,38.153 164.801,37.925 Q164.423,37.696 163.992,37.608 Q163.562,37.521 163.017,37.521 Q162.182,37.521 161.241,37.819 Q160.301,38.118 159.466,38.663 L159.378,38.663 L159.378,36.826 Q160.002,36.519 161.043,36.259 Q162.085,36 163.061,36 Q164.019,36 164.748,36.176 Q165.478,36.352 166.066,36.738 Q166.699,37.16 167.024,37.758 Q167.35,38.355 167.35,39.155 Q167.35,40.245 166.581,41.058 Q165.812,41.871 164.766,42.082 L164.766,42.205 Q165.188,42.275 165.732,42.5 Q166.277,42.724 166.655,43.058 z" fill="#000000"/>
        <path d="M46.896,104.404 L44.954,104.404 L44.954,108.087 L43.267,108.087 L43.267,104.404 L37,104.404 L37,102.383 L43.337,95 L44.954,95 L44.954,102.998 L46.896,102.998 z M43.267,102.998 L43.267,97.092 L38.195,102.998 z" fill="#000000"/>
        <path d="M107.525,103.93 Q107.525,104.844 107.191,105.679 Q106.857,106.514 106.277,107.085 Q105.645,107.7 104.77,108.03 Q103.896,108.359 102.744,108.359 Q101.672,108.359 100.679,108.135 Q99.686,107.911 99,107.595 L99,105.74 L99.123,105.74 Q99.844,106.197 100.811,106.518 Q101.777,106.839 102.709,106.839 Q103.333,106.839 103.917,106.663 Q104.502,106.487 104.959,106.048 Q105.346,105.67 105.543,105.143 Q105.741,104.615 105.741,103.921 Q105.741,103.244 105.508,102.778 Q105.275,102.312 104.862,102.031 Q104.405,101.697 103.75,101.561 Q103.096,101.425 102.287,101.425 Q101.514,101.425 100.797,101.53 Q100.081,101.636 99.562,101.741 L99.562,95 L107.438,95 L107.438,96.538 L101.259,96.538 L101.259,100.019 Q101.637,99.983 102.032,99.966 Q102.428,99.948 102.718,99.948 Q103.781,99.948 104.581,100.128 Q105.381,100.309 106.049,100.766 Q106.752,101.249 107.139,102.014 Q107.525,102.778 107.525,103.93 z" fill="#000000"/>
        <path d="M167.264,104.088 Q167.264,106.083 165.95,107.344 Q164.636,108.605 162.729,108.605 Q161.762,108.605 160.971,108.307 Q160.18,108.008 159.573,107.419 Q158.817,106.689 158.409,105.485 Q158,104.281 158,102.585 Q158,100.845 158.374,99.5 Q158.747,98.155 159.564,97.109 Q160.338,96.116 161.56,95.558 Q162.781,95 164.407,95 Q164.926,95 165.277,95.044 Q165.629,95.088 165.989,95.202 L165.989,96.881 L165.901,96.881 Q165.655,96.749 165.159,96.63 Q164.662,96.512 164.144,96.512 Q162.254,96.512 161.129,97.694 Q160.004,98.876 159.819,100.889 Q160.558,100.44 161.274,100.208 Q161.99,99.975 162.931,99.975 Q163.766,99.975 164.403,100.128 Q165.04,100.282 165.708,100.748 Q166.481,101.284 166.873,102.102 Q167.264,102.919 167.264,104.088 z M165.479,104.158 Q165.479,103.341 165.238,102.805 Q164.996,102.269 164.442,101.873 Q164.038,101.592 163.546,101.504 Q163.054,101.416 162.518,101.416 Q161.771,101.416 161.129,101.592 Q160.487,101.768 159.811,102.137 Q159.793,102.33 159.784,102.51 Q159.775,102.69 159.775,102.963 Q159.775,104.352 160.061,105.156 Q160.347,105.96 160.848,106.426 Q161.252,106.812 161.722,106.993 Q162.192,107.173 162.746,107.173 Q164.021,107.173 164.75,106.395 Q165.479,105.617 165.479,104.158 z" fill="#000000"/>
        <path d="M47.956,156.96 L42.032,168.087 L40.151,168.087 L46.453,156.538 L39,156.538 L39,155 L47.956,155 z" fill="#000000"/>
        <path d="M108.299,164.738 Q108.299,166.435 106.976,167.56 Q105.653,168.685 103.649,168.685 Q101.522,168.685 100.261,167.586 Q99,166.487 99,164.773 Q99,163.684 99.633,162.8 Q100.266,161.917 101.417,161.398 L101.417,161.346 Q100.362,160.783 99.857,160.115 Q99.352,159.447 99.352,158.445 Q99.352,156.969 100.564,155.984 Q101.777,155 103.649,155 Q105.609,155 106.778,155.94 Q107.947,156.881 107.947,158.331 Q107.947,159.219 107.394,160.076 Q106.84,160.933 105.768,161.416 L105.768,161.469 Q106.998,161.996 107.648,162.77 Q108.299,163.543 108.299,164.738 z M106.216,158.349 Q106.216,157.408 105.491,156.85 Q104.766,156.292 103.641,156.292 Q102.533,156.292 101.826,156.819 Q101.118,157.347 101.118,158.243 Q101.118,158.876 101.474,159.337 Q101.83,159.799 102.551,160.159 Q102.876,160.317 103.487,160.572 Q104.098,160.827 104.678,160.994 Q105.548,160.414 105.882,159.79 Q106.216,159.166 106.216,158.349 z M106.488,164.905 Q106.488,164.097 106.132,163.609 Q105.776,163.121 104.739,162.629 Q104.326,162.436 103.834,162.269 Q103.342,162.102 102.524,161.803 Q101.733,162.233 101.254,162.972 Q100.775,163.71 100.775,164.642 Q100.775,165.828 101.593,166.602 Q102.41,167.375 103.667,167.375 Q104.95,167.375 105.719,166.716 Q106.488,166.057 106.488,164.905 z" fill="#000000"/>
        <path d="M167.264,161.021 Q167.264,162.734 166.873,164.132 Q166.481,165.529 165.69,166.514 Q164.891,167.516 163.687,168.061 Q162.482,168.605 160.856,168.605 Q160.399,168.605 159.995,168.557 Q159.591,168.509 159.274,168.403 L159.274,166.725 L159.362,166.725 Q159.617,166.856 160.083,166.975 Q160.549,167.094 161.12,167.094 Q163.062,167.094 164.166,165.929 Q165.269,164.765 165.444,162.717 Q164.627,163.209 163.906,163.42 Q163.186,163.631 162.333,163.631 Q161.524,163.631 160.87,163.473 Q160.215,163.314 159.556,162.857 Q158.782,162.321 158.391,161.495 Q158,160.669 158,159.518 Q158,157.514 159.318,156.257 Q160.637,155 162.535,155 Q163.484,155 164.293,155.294 Q165.102,155.589 165.708,156.178 Q166.455,156.907 166.859,158.054 Q167.264,159.201 167.264,161.021 z M165.488,160.643 Q165.488,159.28 165.207,158.454 Q164.926,157.628 164.434,157.171 Q164.021,156.775 163.546,156.604 Q163.071,156.433 162.518,156.433 Q161.252,156.433 160.518,157.224 Q159.784,158.015 159.784,159.447 Q159.784,160.282 160.021,160.81 Q160.259,161.337 160.821,161.732 Q161.217,162.005 161.691,162.097 Q162.166,162.189 162.746,162.189 Q163.432,162.189 164.135,162.005 Q164.838,161.82 165.453,161.469 Q165.462,161.284 165.475,161.104 Q165.488,160.924 165.488,160.643 z" fill="#000000"/>
      </g>
    </g>
    <g id="svg-transpose-matrix2">
      <g id="svg-transpose-matrix2-items">
        <g>
          <path d="M277.5,12.5 L337.5,12.5 L337.5,72.5 L277.5,72.5 L277.5,12.5 z" fill="#CFDEFF"/>
          <path d="M277.5,12.5 L337.5,12.5 L337.5,72.5 L277.5,72.5 L277.5,12.5 z" fill-opacity="0" stroke="#000000" stroke-width="1"/>
        </g>
        <g>
          <path d="M277.5,72.5 L337.5,72.5 L337.5,132.5 L277.5,132.5 L277.5,72.5 z" fill="#CFDEFF"/>
          <path d="M277.5,72.5 L337.5,72.5 L337.5,132.5 L277.5,132.5 L277.5,72.5 z" fill-opacity="0" stroke="#000000" stroke-width="1"/>
        </g>
        <g>
          <path d="M277.5,132.5 L337.5,132.5 L337.5,192.5 L277.5,192.5 L277.5,132.5 z" fill="#CFDEFF"/>
          <path d="M277.5,132.5 L337.5,132.5 L337.5,192.5 L277.5,192.5 L277.5,132.5 z" fill-opacity="0" stroke="#000000" stroke-width="1"/>
        </g>
        <g>
          <path d="M337.5,12.5 L397.5,12.5 L397.5,72.5 L337.5,72.5 L337.5,12.5 z" fill="#CFDEFF"/>
          <path d="M337.5,12.5 L397.5,12.5 L397.5,72.5 L337.5,72.5 L337.5,12.5 z" fill-opacity="0" stroke="#000000" stroke-width="1"/>
        </g>
        <g>
          <path d="M337.5,72.5 L397.5,72.5 L397.5,132.5 L337.5,132.5 L337.5,72.5 z" fill="#CFDEFF"/>
          <path d="M337.5,72.5 L397.5,72.5 L397.5,132.5 L337.5,132.5 L337.5,72.5 z" fill-opacity="0" stroke="#000000" stroke-width="1"/>
        </g>
        <g>
          <path d="M337.5,132.5 L397.5,132.5 L397.5,192.5 L337.5,192.5 L337.5,132.5 z" fill="#CFDEFF"/>
          <path d="M337.5,132.5 L397.5,132.5 L397.5,192.5 L337.5,192.5 L337.5,132.5 z" fill-opacity="0" stroke="#000000" stroke-width="1"/>
        </g>
        <g>
          <path d="M397.5,12.5 L457.5,12.5 L457.5,72.5 L397.5,72.5 L397.5,12.5 z" fill="#CFDEFF"/>
          <path d="M397.5,12.5 L457.5,12.5 L457.5,72.5 L397.5,72.5 L397.5,12.5 z" fill-opacity="0" stroke="#000000" stroke-width="1"/>
        </g>
        <g>
          <path d="M397.5,72.5 L457.5,72.5 L457.5,132.5 L397.5,132.5 L397.5,72.5 z" fill="#CFDEFF"/>
          <path d="M397.5,72.5 L457.5,72.5 L457.5,132.5 L397.5,132.5 L397.5,72.5 z" fill-opacity="0" stroke="#000000" stroke-width="1"/>
        </g>
        <g>
          <path d="M397.5,132.5 L457.5,132.5 L457.5,192.5 L397.5,192.5 L397.5,132.5 z" fill="#CFDEFF"/>
          <path d="M397.5,132.5 L457.5,132.5 L457.5,192.5 L397.5,192.5 L397.5,132.5 z" fill-opacity="0" stroke="#000000" stroke-width="1"/>
        </g>
      </g>
      <g id="svg-transpose-matrix2-labels">
        <path d="M311.194,49.333 L304.11,49.333 L304.11,47.997 L306.835,47.997 L306.835,39.226 L304.11,39.226 L304.11,38.031 Q304.664,38.031 305.297,37.938 Q305.929,37.846 306.255,37.67 Q306.659,37.451 306.892,37.112 Q307.125,36.774 307.16,36.203 L308.522,36.203 L308.522,47.997 L311.194,47.997 z" fill="#000000"/>
        <path d="M372.13,45.317 L370.187,45.317 L370.187,49 L368.5,49 L368.5,45.317 L362.233,45.317 L362.233,43.296 L368.57,35.913 L370.187,35.913 L370.187,43.911 L372.13,43.911 z M368.5,43.911 L368.5,38.005 L363.429,43.911 z" fill="#000000"/>
        <path d="M431.866,37.873 L425.942,49 L424.062,49 L430.363,37.451 L422.91,37.451 L422.91,35.913 L431.866,35.913 z" fill="#000000"/>
        <path d="M310.941,109 L302.082,109 L302.082,107.163 Q303.005,106.372 303.932,105.581 Q304.859,104.79 305.659,104.008 Q307.346,102.373 307.97,101.411 Q308.594,100.448 308.594,99.332 Q308.594,98.312 307.922,97.737 Q307.25,97.161 306.046,97.161 Q305.246,97.161 304.314,97.442 Q303.382,97.724 302.495,98.304 L302.407,98.304 L302.407,96.458 Q303.031,96.15 304.072,95.895 Q305.114,95.641 306.089,95.641 Q308.102,95.641 309.245,96.612 Q310.387,97.583 310.387,99.244 Q310.387,99.991 310.198,100.637 Q310.009,101.283 309.64,101.863 Q309.297,102.408 308.836,102.936 Q308.375,103.463 307.715,104.104 Q306.775,105.027 305.773,105.893 Q304.771,106.759 303.901,107.497 L310.941,107.497 z" fill="#000000"/>
        <path d="M371.726,104.509 Q371.726,105.423 371.392,106.258 Q371.058,107.093 370.477,107.665 Q369.845,108.28 368.97,108.61 Q368.096,108.939 366.944,108.939 Q365.872,108.939 364.879,108.715 Q363.886,108.491 363.2,108.174 L363.2,106.32 L363.323,106.32 Q364.044,106.777 365.011,107.098 Q365.977,107.419 366.909,107.419 Q367.533,107.419 368.118,107.243 Q368.702,107.067 369.159,106.628 Q369.546,106.25 369.744,105.722 Q369.941,105.195 369.941,104.501 Q369.941,103.824 369.708,103.358 Q369.476,102.892 369.062,102.611 Q368.605,102.277 367.951,102.141 Q367.296,102.005 366.487,102.005 Q365.714,102.005 364.997,102.11 Q364.281,102.215 363.763,102.321 L363.763,95.58 L371.638,95.58 L371.638,97.118 L365.459,97.118 L365.459,100.598 Q365.837,100.563 366.232,100.546 Q366.628,100.528 366.918,100.528 Q367.981,100.528 368.781,100.708 Q369.581,100.888 370.249,101.345 Q370.952,101.829 371.339,102.593 Q371.726,103.358 371.726,104.509 z" fill="#000000"/>
        <path d="M431.928,105.019 Q431.928,106.715 430.605,107.84 Q429.282,108.965 427.278,108.965 Q425.151,108.965 423.89,107.867 Q422.629,106.768 422.629,105.054 Q422.629,103.964 423.262,103.081 Q423.895,102.198 425.046,101.679 L425.046,101.627 Q423.991,101.064 423.486,100.396 Q422.98,99.728 422.98,98.726 Q422.98,97.25 424.193,96.265 Q425.406,95.281 427.278,95.281 Q429.238,95.281 430.407,96.221 Q431.576,97.162 431.576,98.612 Q431.576,99.5 431.022,100.357 Q430.469,101.214 429.396,101.697 L429.396,101.75 Q430.627,102.277 431.277,103.05 Q431.928,103.824 431.928,105.019 z M429.845,98.63 Q429.845,97.689 429.12,97.131 Q428.395,96.573 427.27,96.573 Q426.162,96.573 425.455,97.1 Q424.747,97.628 424.747,98.524 Q424.747,99.157 425.103,99.618 Q425.459,100.08 426.18,100.44 Q426.505,100.598 427.116,100.853 Q427.727,101.108 428.307,101.275 Q429.177,100.695 429.511,100.071 Q429.845,99.447 429.845,98.63 z M430.117,105.186 Q430.117,104.378 429.761,103.89 Q429.405,103.402 428.368,102.91 Q427.955,102.716 427.463,102.549 Q426.971,102.382 426.153,102.084 Q425.362,102.514 424.883,103.253 Q424.404,103.991 424.404,104.923 Q424.404,106.109 425.222,106.882 Q426.039,107.656 427.296,107.656 Q428.579,107.656 429.348,106.997 Q430.117,106.338 430.117,105.186 z" fill="#000000"/>
        <path d="M310.79,162.698 Q311.212,163.076 311.484,163.647 Q311.756,164.219 311.756,165.124 Q311.756,166.02 311.431,166.768 Q311.106,167.515 310.517,168.068 Q309.858,168.684 308.966,168.978 Q308.074,169.272 307.01,169.272 Q305.921,169.272 304.866,169.013 Q303.811,168.754 303.134,168.446 L303.134,166.609 L303.266,166.609 Q304.013,167.102 305.024,167.427 Q306.035,167.752 306.975,167.752 Q307.529,167.752 308.153,167.567 Q308.777,167.383 309.164,167.022 Q309.568,166.636 309.766,166.17 Q309.964,165.704 309.964,164.992 Q309.964,164.289 309.739,163.828 Q309.515,163.366 309.12,163.103 Q308.724,162.83 308.162,162.729 Q307.599,162.628 306.949,162.628 L306.158,162.628 L306.158,161.169 L306.773,161.169 Q308.109,161.169 308.904,160.611 Q309.7,160.053 309.7,158.98 Q309.7,158.506 309.498,158.15 Q309.296,157.794 308.935,157.565 Q308.557,157.337 308.127,157.249 Q307.696,157.161 307.151,157.161 Q306.316,157.161 305.376,157.46 Q304.435,157.759 303.6,158.304 L303.512,158.304 L303.512,156.467 Q304.136,156.159 305.178,155.9 Q306.219,155.641 307.195,155.641 Q308.153,155.641 308.882,155.816 Q309.612,155.992 310.201,156.379 Q310.834,156.801 311.159,157.398 Q311.484,157.996 311.484,158.796 Q311.484,159.886 310.715,160.699 Q309.946,161.512 308.9,161.723 L308.9,161.846 Q309.322,161.916 309.867,162.14 Q310.412,162.364 310.79,162.698 z" fill="#000000"/>
        <path d="M372.024,164.422 Q372.024,166.417 370.71,167.678 Q369.396,168.939 367.489,168.939 Q366.522,168.939 365.731,168.64 Q364.94,168.341 364.334,167.753 Q363.578,167.023 363.169,165.819 Q362.761,164.615 362.761,162.919 Q362.761,161.178 363.134,159.834 Q363.508,158.489 364.325,157.443 Q365.099,156.45 366.32,155.892 Q367.542,155.334 369.168,155.334 Q369.686,155.334 370.038,155.378 Q370.39,155.422 370.75,155.536 L370.75,157.214 L370.662,157.214 Q370.416,157.083 369.919,156.964 Q369.423,156.845 368.904,156.845 Q367.015,156.845 365.89,158.027 Q364.765,159.21 364.58,161.222 Q365.318,160.774 366.035,160.541 Q366.751,160.308 367.691,160.308 Q368.526,160.308 369.164,160.462 Q369.801,160.616 370.469,161.082 Q371.242,161.618 371.633,162.435 Q372.024,163.253 372.024,164.422 z M370.24,164.492 Q370.24,163.674 369.998,163.138 Q369.757,162.602 369.203,162.207 Q368.799,161.925 368.307,161.838 Q367.814,161.75 367.278,161.75 Q366.531,161.75 365.89,161.925 Q365.248,162.101 364.571,162.47 Q364.554,162.664 364.545,162.844 Q364.536,163.024 364.536,163.297 Q364.536,164.685 364.822,165.489 Q365.107,166.294 365.608,166.759 Q366.013,167.146 366.483,167.326 Q366.953,167.506 367.507,167.506 Q368.781,167.506 369.511,166.729 Q370.24,165.951 370.24,164.492 z" fill="#000000"/>
        <path d="M431.264,160.021 Q431.264,161.734 430.873,163.132 Q430.481,164.529 429.69,165.514 Q428.891,166.516 427.687,167.061 Q426.482,167.605 424.856,167.605 Q424.399,167.605 423.995,167.557 Q423.591,167.509 423.274,167.403 L423.274,165.725 L423.362,165.725 Q423.617,165.856 424.083,165.975 Q424.549,166.094 425.12,166.094 Q427.062,166.094 428.166,164.929 Q429.269,163.765 429.444,161.717 Q428.627,162.209 427.906,162.42 Q427.186,162.631 426.333,162.631 Q425.524,162.631 424.87,162.473 Q424.215,162.314 423.556,161.857 Q422.782,161.321 422.391,160.495 Q422,159.669 422,158.518 Q422,156.514 423.318,155.257 Q424.637,154 426.535,154 Q427.484,154 428.293,154.294 Q429.102,154.589 429.708,155.178 Q430.455,155.907 430.859,157.054 Q431.264,158.201 431.264,160.021 z M429.488,159.643 Q429.488,158.28 429.207,157.454 Q428.926,156.628 428.434,156.171 Q428.021,155.775 427.546,155.604 Q427.071,155.433 426.518,155.433 Q425.252,155.433 424.518,156.224 Q423.784,157.015 423.784,158.447 Q423.784,159.282 424.021,159.81 Q424.259,160.337 424.821,160.732 Q425.217,161.005 425.691,161.097 Q426.166,161.189 426.746,161.189 Q427.432,161.189 428.135,161.005 Q428.838,160.82 429.453,160.469 Q429.462,160.284 429.475,160.104 Q429.488,159.924 429.488,159.643 z" fill="#000000"/>
      </g>
    </g>
  </g>
</svg>
