<?xml version="1.0" encoding="UTF-8"?>
<!DOCTYPE svg PUBLIC "-//W3C//DTD SVG 1.1//EN" "http://www.w3.org/Graphics/SVG/1.1/DTD/svg11.dtd">
<svg version="1.1" xmlns="http://www.w3.org/2000/svg" xmlns:xlink="http://www.w3.org/1999/xlink" x="0" y="0" width="384" height="155" viewBox="0, 0, 500, 200">
  <g id="svg-reverse-array">
    <g id="svg-reverse-array1">
      <g id="svg-reverse-array1-items">
        <g>
          <path d="M9.5,14.5 L69.5,14.5 L69.5,74.5 L9.5,74.5 L9.5,14.5 z" fill="#CFDEFF"/>
          <path d="M9.5,14.5 L69.5,14.5 L69.5,74.5 L9.5,74.5 L9.5,14.5 z" fill-opacity="0" stroke="#000000" stroke-width="1"/>
        </g>
        <g>
          <path d="M69.5,14.5 L129.5,14.5 L129.5,74.5 L69.5,74.5 L69.5,14.5 z" fill="#CFDEFF"/>
          <path d="M69.5,14.5 L129.5,14.5 L129.5,74.5 L69.5,74.5 L69.5,14.5 z" fill-opacity="0" stroke="#000000" stroke-width="1"/>
        </g>
        <g>
          <path d="M129.5,14.5 L189.5,14.5 L189.5,74.5 L129.5,74.5 L129.5,14.5 z" fill="#CFDEFF"/>
          <path d="M129.5,14.5 L189.5,14.5 L189.5,74.5 L129.5,74.5 L129.5,14.5 z" fill-opacity="0" stroke="#000000" stroke-width="1"/>
        </g>
        <g>
          <path d="M189.5,14.5 L249.5,14.5 L249.5,74.5 L189.5,74.5 L189.5,14.5 z" fill="#CFDEFF"/>
          <path d="M189.5,14.5 L249.5,14.5 L249.5,74.5 L189.5,74.5 L189.5,14.5 z" fill-opacity="0" stroke="#000000" stroke-width="1"/>
        </g>
        <g>
          <path d="M249.5,14.5 L309.5,14.5 L309.5,74.5 L249.5,74.5 L249.5,14.5 z" fill="#CFDEFF"/>
          <path d="M249.5,14.5 L309.5,14.5 L309.5,74.5 L249.5,74.5 L249.5,14.5 z" fill-opacity="0" stroke="#000000" stroke-width="1"/>
        </g>
        <g>
          <path d="M309.5,14.5 L369.5,14.5 L369.5,74.5 L309.5,74.5 L309.5,14.5 z" fill="#CFDEFF"/>
          <path d="M309.5,14.5 L369.5,14.5 L369.5,74.5 L309.5,74.5 L309.5,14.5 z" fill-opacity="0" stroke="#000000" stroke-width="1"/>
        </g>
        <g>
          <path d="M369.5,14.5 L429.5,14.5 L429.5,74.5 L369.5,74.5 L369.5,14.5 z" fill="#CFDEFF"/>
          <path d="M369.5,14.5 L429.5,14.5 L429.5,74.5 L369.5,74.5 L369.5,14.5 z" fill-opacity="0" stroke="#000000" stroke-width="1"/>
        </g>
        <g>
          <path d="M429.5,14.5 L489.5,14.5 L489.5,74.5 L429.5,74.5 L429.5,14.5 z" fill="#CFDEFF"/>
          <path d="M429.5,14.5 L489.5,14.5 L489.5,74.5 L429.5,74.5 L429.5,14.5 z" fill-opacity="0" stroke="#000000" stroke-width="1"/>
        </g>
      </g>
      <g id="svg-reverse-array1-item-labels">
        <path d="M42.806,50 L35.722,50 L35.722,48.664 L38.446,48.664 L38.446,39.893 L35.722,39.893 L35.722,38.697 Q36.275,38.697 36.908,38.605 Q37.541,38.513 37.866,38.337 Q38.271,38.117 38.503,37.779 Q38.736,37.44 38.771,36.869 L40.134,36.869 L40.134,48.664 L42.806,48.664 z" fill="#000000"/>
        <path d="M103.553,50 L94.693,50 L94.693,48.163 Q95.616,47.372 96.543,46.581 Q97.471,45.79 98.271,45.008 Q99.958,43.373 100.582,42.411 Q101.206,41.448 101.206,40.332 Q101.206,39.312 100.534,38.737 Q99.861,38.161 98.657,38.161 Q97.857,38.161 96.926,38.442 Q95.994,38.724 95.106,39.304 L95.019,39.304 L95.019,37.458 Q95.643,37.15 96.684,36.896 Q97.726,36.641 98.701,36.641 Q100.714,36.641 101.856,37.612 Q102.999,38.583 102.999,40.244 Q102.999,40.991 102.81,41.637 Q102.621,42.283 102.252,42.863 Q101.909,43.408 101.448,43.936 Q100.986,44.463 100.327,45.104 Q99.387,46.027 98.385,46.893 Q97.383,47.759 96.513,48.497 L103.553,48.497 z" fill="#000000"/>
        <path d="M162.401,43.698 Q162.823,44.076 163.096,44.647 Q163.368,45.219 163.368,46.124 Q163.368,47.021 163.043,47.768 Q162.718,48.515 162.129,49.068 Q161.47,49.684 160.578,49.978 Q159.686,50.272 158.622,50.272 Q157.532,50.272 156.478,50.013 Q155.423,49.754 154.746,49.446 L154.746,47.609 L154.878,47.609 Q155.625,48.102 156.636,48.427 Q157.646,48.752 158.587,48.752 Q159.141,48.752 159.765,48.567 Q160.389,48.383 160.775,48.022 Q161.18,47.636 161.377,47.17 Q161.575,46.704 161.575,45.992 Q161.575,45.289 161.351,44.828 Q161.127,44.366 160.731,44.103 Q160.336,43.83 159.773,43.729 Q159.211,43.628 158.561,43.628 L157.77,43.628 L157.77,42.169 L158.385,42.169 Q159.721,42.169 160.516,41.611 Q161.312,41.053 161.312,39.98 Q161.312,39.506 161.109,39.15 Q160.907,38.794 160.547,38.565 Q160.169,38.337 159.738,38.249 Q159.308,38.161 158.763,38.161 Q157.928,38.161 156.987,38.46 Q156.047,38.759 155.212,39.304 L155.124,39.304 L155.124,37.467 Q155.748,37.159 156.79,36.9 Q157.831,36.641 158.807,36.641 Q159.765,36.641 160.494,36.816 Q161.224,36.992 161.812,37.379 Q162.445,37.801 162.771,38.398 Q163.096,38.996 163.096,39.796 Q163.096,40.886 162.327,41.699 Q161.558,42.512 160.512,42.723 L160.512,42.846 Q160.934,42.916 161.479,43.14 Q162.023,43.364 162.401,43.698 z" fill="#000000"/>
        <path d="M223.852,46.317 L221.909,46.317 L221.909,50 L220.222,50 L220.222,46.317 L213.955,46.317 L213.955,44.296 L220.292,36.913 L221.909,36.913 L221.909,44.911 L223.852,44.911 z M220.222,44.911 L220.222,39.005 L215.15,44.911 z" fill="#000000"/>
        <path d="M283.447,45.843 Q283.447,46.757 283.113,47.592 Q282.779,48.427 282.199,48.998 Q281.566,49.613 280.692,49.943 Q279.817,50.272 278.666,50.272 Q277.594,50.272 276.601,50.048 Q275.607,49.824 274.922,49.508 L274.922,47.653 L275.045,47.653 Q275.766,48.11 276.732,48.431 Q277.699,48.752 278.631,48.752 Q279.255,48.752 279.839,48.576 Q280.424,48.4 280.881,47.961 Q281.268,47.583 281.465,47.056 Q281.663,46.528 281.663,45.834 Q281.663,45.157 281.43,44.691 Q281.197,44.226 280.784,43.944 Q280.327,43.61 279.672,43.474 Q279.018,43.338 278.209,43.338 Q277.436,43.338 276.719,43.443 Q276.003,43.549 275.484,43.654 L275.484,36.913 L283.359,36.913 L283.359,38.451 L277.181,38.451 L277.181,41.932 Q277.559,41.896 277.954,41.879 Q278.35,41.861 278.64,41.861 Q279.703,41.861 280.503,42.042 Q281.303,42.222 281.971,42.679 Q282.674,43.162 283.061,43.927 Q283.447,44.691 283.447,45.843 z" fill="#000000"/>
        <path d="M343.746,45.755 Q343.746,47.75 342.432,49.011 Q341.118,50.272 339.211,50.272 Q338.244,50.272 337.453,49.974 Q336.662,49.675 336.056,49.086 Q335.3,48.356 334.891,47.152 Q334.482,45.948 334.482,44.252 Q334.482,42.512 334.856,41.167 Q335.229,39.822 336.047,38.776 Q336.82,37.783 338.042,37.225 Q339.264,36.667 340.89,36.667 Q341.408,36.667 341.76,36.711 Q342.111,36.755 342.472,36.869 L342.472,38.548 L342.384,38.548 Q342.138,38.416 341.641,38.297 Q341.145,38.179 340.626,38.179 Q338.736,38.179 337.611,39.361 Q336.486,40.543 336.302,42.556 Q337.04,42.107 337.756,41.875 Q338.473,41.642 339.413,41.642 Q340.248,41.642 340.885,41.795 Q341.522,41.949 342.19,42.415 Q342.964,42.951 343.355,43.769 Q343.746,44.586 343.746,45.755 z M341.962,45.825 Q341.962,45.008 341.72,44.472 Q341.479,43.936 340.925,43.54 Q340.521,43.259 340.028,43.171 Q339.536,43.083 339,43.083 Q338.253,43.083 337.611,43.259 Q336.97,43.435 336.293,43.804 Q336.275,43.997 336.267,44.177 Q336.258,44.357 336.258,44.63 Q336.258,46.019 336.543,46.823 Q336.829,47.627 337.33,48.093 Q337.734,48.479 338.205,48.66 Q338.675,48.84 339.229,48.84 Q340.503,48.84 341.232,48.062 Q341.962,47.284 341.962,45.825 z" fill="#000000"/>
        <path d="M403.588,38.873 L397.664,50 L395.783,50 L402.085,38.451 L394.632,38.451 L394.632,36.913 L403.588,36.913 z" fill="#000000"/>
        <path d="M463.649,46.353 Q463.649,48.049 462.327,49.174 Q461.004,50.299 459,50.299 Q456.873,50.299 455.612,49.2 Q454.351,48.102 454.351,46.388 Q454.351,45.298 454.983,44.415 Q455.616,43.531 456.768,43.013 L456.768,42.96 Q455.713,42.397 455.208,41.729 Q454.702,41.062 454.702,40.06 Q454.702,38.583 455.915,37.599 Q457.128,36.614 459,36.614 Q460.96,36.614 462.129,37.555 Q463.298,38.495 463.298,39.945 Q463.298,40.833 462.744,41.69 Q462.19,42.547 461.118,43.03 L461.118,43.083 Q462.349,43.61 462.999,44.384 Q463.649,45.157 463.649,46.353 z M461.566,39.963 Q461.566,39.022 460.841,38.464 Q460.116,37.906 458.991,37.906 Q457.884,37.906 457.176,38.434 Q456.469,38.961 456.469,39.857 Q456.469,40.49 456.825,40.952 Q457.181,41.413 457.901,41.773 Q458.227,41.932 458.837,42.187 Q459.448,42.441 460.028,42.608 Q460.898,42.028 461.232,41.404 Q461.566,40.78 461.566,39.963 z M461.839,46.52 Q461.839,45.711 461.483,45.223 Q461.127,44.735 460.09,44.243 Q459.677,44.05 459.185,43.883 Q458.692,43.716 457.875,43.417 Q457.084,43.848 456.605,44.586 Q456.126,45.324 456.126,46.256 Q456.126,47.442 456.943,48.216 Q457.761,48.989 459.018,48.989 Q460.301,48.989 461.07,48.33 Q461.839,47.671 461.839,46.52 z" fill="#000000"/>
      </g>
    </g>
    <g id="svg-reverse-array2">
      <g id="svg-reverse-array2-items">
        <g>
          <path d="M9.5,129.5 L69.5,129.5 L69.5,189.5 L9.5,189.5 L9.5,129.5 z" fill="#CFDEFF"/>
          <path d="M9.5,129.5 L69.5,129.5 L69.5,189.5 L9.5,189.5 L9.5,129.5 z" fill-opacity="0" stroke="#000000" stroke-width="1"/>
        </g>
        <g>
          <path d="M69.5,129.5 L129.5,129.5 L129.5,189.5 L69.5,189.5 L69.5,129.5 z" fill="#CFDEFF"/>
          <path d="M69.5,129.5 L129.5,129.5 L129.5,189.5 L69.5,189.5 L69.5,129.5 z" fill-opacity="0" stroke="#000000" stroke-width="1"/>
        </g>
        <g>
          <path d="M129.5,129.5 L189.5,129.5 L189.5,189.5 L129.5,189.5 L129.5,129.5 z" fill="#CFDEFF"/>
          <path d="M129.5,129.5 L189.5,129.5 L189.5,189.5 L129.5,189.5 L129.5,129.5 z" fill-opacity="0" stroke="#000000" stroke-width="1"/>
        </g>
        <g>
          <path d="M189.5,129.5 L249.5,129.5 L249.5,189.5 L189.5,189.5 L189.5,129.5 z" fill="#CFDEFF"/>
          <path d="M189.5,129.5 L249.5,129.5 L249.5,189.5 L189.5,189.5 L189.5,129.5 z" fill-opacity="0" stroke="#000000" stroke-width="1"/>
        </g>
        <g>
          <path d="M249.5,129.5 L309.5,129.5 L309.5,189.5 L249.5,189.5 L249.5,129.5 z" fill="#CFDEFF"/>
          <path d="M249.5,129.5 L309.5,129.5 L309.5,189.5 L249.5,189.5 L249.5,129.5 z" fill-opacity="0" stroke="#000000" stroke-width="1"/>
        </g>
        <g>
          <path d="M309.5,129.5 L369.5,129.5 L369.5,189.5 L309.5,189.5 L309.5,129.5 z" fill="#CFDEFF"/>
          <path d="M309.5,129.5 L369.5,129.5 L369.5,189.5 L309.5,189.5 L309.5,129.5 z" fill-opacity="0" stroke="#000000" stroke-width="1"/>
        </g>
        <g>
          <path d="M369.5,129.5 L429.5,129.5 L429.5,189.5 L369.5,189.5 L369.5,129.5 z" fill="#CFDEFF"/>
          <path d="M369.5,129.5 L429.5,129.5 L429.5,189.5 L369.5,189.5 L369.5,129.5 z" fill-opacity="0" stroke="#000000" stroke-width="1"/>
        </g>
        <g>
          <path d="M429.5,129.5 L489.5,129.5 L489.5,189.5 L429.5,189.5 L429.5,129.5 z" fill="#CFDEFF"/>
          <path d="M429.5,129.5 L489.5,129.5 L489.5,189.5 L429.5,189.5 L429.5,129.5 z" fill-opacity="0" stroke="#000000" stroke-width="1"/>
        </g>
      </g>
      <g id="svg-reverse-array2-item-labels">
        <path d="M43.649,161.353 Q43.649,163.049 42.327,164.174 Q41.004,165.299 39,165.299 Q36.873,165.299 35.612,164.2 Q34.351,163.102 34.351,161.388 Q34.351,160.298 34.983,159.415 Q35.616,158.531 36.768,158.013 L36.768,157.96 Q35.713,157.397 35.208,156.729 Q34.702,156.062 34.702,155.06 Q34.702,153.583 35.915,152.599 Q37.128,151.614 39,151.614 Q40.96,151.614 42.129,152.555 Q43.298,153.495 43.298,154.945 Q43.298,155.833 42.744,156.69 Q42.19,157.547 41.118,158.03 L41.118,158.083 Q42.349,158.61 42.999,159.384 Q43.649,160.157 43.649,161.353 z M41.566,154.963 Q41.566,154.022 40.841,153.464 Q40.116,152.906 38.991,152.906 Q37.884,152.906 37.176,153.434 Q36.469,153.961 36.469,154.857 Q36.469,155.49 36.825,155.952 Q37.181,156.413 37.901,156.773 Q38.227,156.932 38.837,157.187 Q39.448,157.441 40.028,157.608 Q40.898,157.028 41.232,156.404 Q41.566,155.78 41.566,154.963 z M41.839,161.52 Q41.839,160.711 41.483,160.223 Q41.127,159.735 40.09,159.243 Q39.677,159.05 39.185,158.883 Q38.692,158.716 37.875,158.417 Q37.084,158.848 36.605,159.586 Q36.126,160.324 36.126,161.256 Q36.126,162.442 36.943,163.216 Q37.761,163.989 39.018,163.989 Q40.301,163.989 41.07,163.33 Q41.839,162.671 41.839,161.52 z" fill="#000000"/>
        <path d="M103.588,153.873 L97.664,165 L95.783,165 L102.085,153.451 L94.632,153.451 L94.632,151.913 L103.588,151.913 z" fill="#000000"/>
        <path d="M163.746,160.755 Q163.746,162.75 162.432,164.011 Q161.118,165.272 159.211,165.272 Q158.244,165.272 157.453,164.974 Q156.662,164.675 156.056,164.086 Q155.3,163.356 154.891,162.152 Q154.482,160.948 154.482,159.252 Q154.482,157.512 154.856,156.167 Q155.229,154.822 156.047,153.776 Q156.82,152.783 158.042,152.225 Q159.264,151.667 160.89,151.667 Q161.408,151.667 161.76,151.711 Q162.111,151.755 162.472,151.869 L162.472,153.548 L162.384,153.548 Q162.138,153.416 161.641,153.297 Q161.145,153.179 160.626,153.179 Q158.736,153.179 157.611,154.361 Q156.486,155.543 156.302,157.556 Q157.04,157.107 157.756,156.875 Q158.473,156.642 159.413,156.642 Q160.248,156.642 160.885,156.795 Q161.522,156.949 162.19,157.415 Q162.964,157.951 163.355,158.769 Q163.746,159.586 163.746,160.755 z M161.962,160.825 Q161.962,160.008 161.72,159.472 Q161.479,158.936 160.925,158.54 Q160.521,158.259 160.028,158.171 Q159.536,158.083 159,158.083 Q158.253,158.083 157.611,158.259 Q156.97,158.435 156.293,158.804 Q156.275,158.997 156.267,159.177 Q156.258,159.357 156.258,159.63 Q156.258,161.019 156.543,161.823 Q156.829,162.627 157.33,163.093 Q157.734,163.479 158.205,163.66 Q158.675,163.84 159.229,163.84 Q160.503,163.84 161.232,163.062 Q161.962,162.284 161.962,160.825 z" fill="#000000"/>
        <path d="M223.447,160.843 Q223.447,161.757 223.113,162.592 Q222.779,163.427 222.199,163.998 Q221.566,164.613 220.692,164.943 Q219.817,165.272 218.666,165.272 Q217.594,165.272 216.601,165.048 Q215.607,164.824 214.922,164.508 L214.922,162.653 L215.045,162.653 Q215.766,163.11 216.732,163.431 Q217.699,163.752 218.631,163.752 Q219.255,163.752 219.839,163.576 Q220.424,163.4 220.881,162.961 Q221.268,162.583 221.465,162.056 Q221.663,161.528 221.663,160.834 Q221.663,160.157 221.43,159.691 Q221.197,159.226 220.784,158.944 Q220.327,158.61 219.672,158.474 Q219.018,158.338 218.209,158.338 Q217.436,158.338 216.719,158.443 Q216.003,158.549 215.484,158.654 L215.484,151.913 L223.359,151.913 L223.359,153.451 L217.181,153.451 L217.181,156.932 Q217.559,156.896 217.954,156.879 Q218.35,156.861 218.64,156.861 Q219.703,156.861 220.503,157.042 Q221.303,157.222 221.971,157.679 Q222.674,158.162 223.061,158.927 Q223.447,159.691 223.447,160.843 z" fill="#000000"/>
        <path d="M283.852,161.317 L281.909,161.317 L281.909,165 L280.222,165 L280.222,161.317 L273.955,161.317 L273.955,159.296 L280.292,151.913 L281.909,151.913 L281.909,159.911 L283.852,159.911 z M280.222,159.911 L280.222,154.005 L275.15,159.911 z" fill="#000000"/>
        <path d="M342.401,158.698 Q342.823,159.076 343.096,159.647 Q343.368,160.219 343.368,161.124 Q343.368,162.021 343.043,162.768 Q342.718,163.515 342.129,164.068 Q341.47,164.684 340.578,164.978 Q339.686,165.272 338.622,165.272 Q337.532,165.272 336.478,165.013 Q335.423,164.754 334.746,164.446 L334.746,162.609 L334.878,162.609 Q335.625,163.102 336.636,163.427 Q337.646,163.752 338.587,163.752 Q339.141,163.752 339.765,163.567 Q340.389,163.383 340.775,163.022 Q341.18,162.636 341.377,162.17 Q341.575,161.704 341.575,160.992 Q341.575,160.289 341.351,159.828 Q341.127,159.366 340.731,159.103 Q340.336,158.83 339.773,158.729 Q339.211,158.628 338.561,158.628 L337.77,158.628 L337.77,157.169 L338.385,157.169 Q339.721,157.169 340.516,156.611 Q341.312,156.053 341.312,154.98 Q341.312,154.506 341.109,154.15 Q340.907,153.794 340.547,153.565 Q340.169,153.337 339.738,153.249 Q339.308,153.161 338.763,153.161 Q337.928,153.161 336.987,153.46 Q336.047,153.759 335.212,154.304 L335.124,154.304 L335.124,152.467 Q335.748,152.159 336.79,151.9 Q337.831,151.641 338.807,151.641 Q339.765,151.641 340.494,151.816 Q341.224,151.992 341.812,152.379 Q342.445,152.801 342.771,153.398 Q343.096,153.996 343.096,154.796 Q343.096,155.886 342.327,156.699 Q341.558,157.512 340.512,157.723 L340.512,157.846 Q340.934,157.916 341.479,158.14 Q342.023,158.364 342.401,158.698 z" fill="#000000"/>
        <path d="M403.553,165 L394.693,165 L394.693,163.163 Q395.616,162.372 396.543,161.581 Q397.471,160.79 398.271,160.008 Q399.958,158.373 400.582,157.411 Q401.206,156.448 401.206,155.332 Q401.206,154.312 400.534,153.737 Q399.861,153.161 398.657,153.161 Q397.857,153.161 396.926,153.442 Q395.994,153.724 395.106,154.304 L395.019,154.304 L395.019,152.458 Q395.643,152.15 396.684,151.896 Q397.726,151.641 398.701,151.641 Q400.714,151.641 401.856,152.612 Q402.999,153.583 402.999,155.244 Q402.999,155.991 402.81,156.637 Q402.621,157.283 402.252,157.863 Q401.909,158.408 401.448,158.936 Q400.986,159.463 400.327,160.104 Q399.387,161.027 398.385,161.893 Q397.383,162.759 396.513,163.497 L403.553,163.497 z" fill="#000000"/>
        <path d="M462.806,165 L455.722,165 L455.722,163.664 L458.446,163.664 L458.446,154.893 L455.722,154.893 L455.722,153.697 Q456.275,153.697 456.908,153.605 Q457.541,153.513 457.866,153.337 Q458.271,153.117 458.503,152.779 Q458.736,152.44 458.771,151.869 L460.134,151.869 L460.134,163.664 L462.806,163.664 z" fill="#000000"/>
      </g>
    </g>
    <g id="svg-reverse-array-arrow">
      <path d="M249.5,82.5 L249.5,109.5" fill-opacity="0" stroke="#000000" stroke-width="1"/>
      <path d="M246.5,109.5 L249.5,117.5 L252.5,109.5 z" fill="#000000" fill-opacity="1" stroke="#000000" stroke-width="1" stroke-opacity="1"/>
    </g>
  </g>
</svg>
