<?xml version="1.0" encoding="UTF-8"?>
<!DOCTYPE svg PUBLIC "-//W3C//DTD SVG 1.1//EN" "http://www.w3.org/Graphics/SVG/1.1/DTD/svg11.dtd">
<svg version="1.1" xmlns="http://www.w3.org/2000/svg" xmlns:xlink="http://www.w3.org/1999/xlink" x="0" y="0" width="511" height="511" viewBox="0, 0, 511, 511">
  <g id="Layer_1">
    <g>
      <path d="M9.577,352.116 L39.941,352.116 C46.125,352.116 51.849,352.92 57.111,354.526 C62.371,356.133 66.911,358.583 70.727,361.876 C74.541,365.171 77.513,369.388 79.643,374.528 C81.771,379.669 82.836,385.734 82.836,392.722 C82.836,399.391 81.752,405.193 79.582,410.133 C77.413,415.073 74.42,419.212 70.606,422.544 C66.79,425.878 62.25,428.37 56.991,430.014 C51.729,431.662 46.005,432.485 39.82,432.485 L9.577,432.485 L9.577,352.116 z M38.857,416.338 C46.888,416.338 53.074,414.23 57.413,410.013 C61.75,405.795 63.919,399.993 63.919,392.601 C63.919,388.908 63.416,385.553 62.412,382.54 C61.407,379.528 59.882,376.958 57.834,374.829 C55.785,372.701 53.195,371.054 50.062,369.889 C46.929,368.725 43.194,368.142 38.856,368.142 L27.771,368.142 L27.771,416.338 L38.857,416.338 z" fill="#0C1B2A"/>
      <path d="M127.298,427.183 C125.37,429.433 122.94,431.159 120.008,432.364 C117.075,433.569 113.803,434.172 110.188,434.172 C108.179,434.172 106.071,433.889 103.863,433.328 C101.652,432.765 99.604,431.822 97.717,430.497 C95.829,429.171 94.262,427.385 93.018,425.135 C91.771,422.887 91.15,420.074 91.15,416.7 C91.15,413.407 91.813,410.476 93.138,407.904 C94.464,405.334 96.29,403.186 98.621,401.458 C100.95,399.731 103.7,398.426 106.875,397.541 C110.047,396.659 113.481,396.216 117.177,396.216 C119.184,396.216 121.213,396.258 123.261,396.337 C125.309,396.418 126.654,396.538 127.297,396.698 L127.297,395.494 C127.297,394.047 126.996,392.824 126.394,391.819 C125.791,390.815 124.987,389.971 123.984,389.288 C122.979,388.606 121.834,388.125 120.55,387.842 C119.264,387.562 117.899,387.42 116.454,387.42 C112.598,387.42 109.405,387.902 106.874,388.867 C104.344,389.83 102.193,390.915 100.428,392.12 L93.318,381.516 C94.523,380.634 95.888,379.75 97.415,378.866 C98.94,377.982 100.747,377.179 102.837,376.456 C104.925,375.733 107.275,375.151 109.886,374.709 C112.495,374.268 115.489,374.046 118.863,374.046 C127.457,374.046 133.804,376.356 137.9,380.974 C141.997,385.594 144.046,391.799 144.046,399.59 L144.046,432.485 L127.779,432.485 L127.298,427.183 z M127.298,407.543 C126.895,407.464 126.132,407.362 125.009,407.242 C123.883,407.121 122.599,407.061 121.153,407.061 C116.333,407.061 112.918,407.744 110.911,409.109 C108.902,410.476 107.899,412.404 107.899,414.893 C107.899,419.552 110.709,421.881 116.333,421.881 C117.698,421.881 119.044,421.661 120.37,421.218 C121.695,420.778 122.859,420.155 123.864,419.351 C124.868,418.549 125.69,417.543 126.334,416.338 C126.976,415.133 127.298,413.729 127.298,412.121 L127.298,407.542 L127.298,407.542 L127.298,407.543 z" fill="#0C1B2A"/>
      <path d="M160.795,389.589 L151.878,389.589 L151.878,375.974 L160.795,375.974 L160.795,358.864 L178.145,358.864 L178.145,375.974 L192.724,375.974 L192.724,389.589 L178.145,389.589 L178.145,411.881 C178.145,414.613 178.687,416.722 179.771,418.206 C180.857,419.694 182.562,420.436 184.892,420.436 C186.66,420.436 188.184,420.134 189.473,419.531 C190.757,418.93 191.961,418.227 193.087,417.423 L200.075,428.026 C194.611,432.364 188.668,434.533 182.241,434.533 C178.224,434.533 174.851,433.949 172.121,432.786 C169.389,431.623 167.181,430.014 165.494,427.966 C163.807,425.918 162.602,423.448 161.88,420.556 C161.156,417.665 160.795,414.452 160.795,410.917 L160.795,389.589 L160.795,389.589 z" fill="#0C1B2A"/>
      <path d="M239.717,427.183 C237.788,429.433 235.357,431.159 232.426,432.364 C229.493,433.569 226.221,434.172 222.607,434.172 C220.597,434.172 218.489,433.889 216.28,433.328 C214.071,432.765 212.022,431.822 210.135,430.497 C208.247,429.171 206.68,427.385 205.436,425.135 C204.19,422.887 203.568,420.074 203.568,416.7 C203.568,413.407 204.231,410.476 205.556,407.904 C206.881,405.334 208.709,403.186 211.04,401.458 C213.367,399.731 216.119,398.426 219.292,397.541 C222.465,396.659 225.9,396.216 229.595,396.216 C231.601,396.216 233.631,396.258 235.68,396.337 C237.729,396.418 239.073,396.538 239.717,396.698 L239.717,395.494 C239.717,394.047 239.414,392.824 238.812,391.819 C238.21,390.815 237.405,389.971 236.402,389.288 C235.397,388.606 234.252,388.125 232.969,387.842 C231.682,387.562 230.318,387.42 228.871,387.42 C225.015,387.42 221.822,387.902 219.292,388.867 C216.761,389.83 214.611,390.915 212.846,392.12 L205.737,381.516 C206.942,380.634 208.306,379.75 209.834,378.866 C211.359,377.982 213.166,377.179 215.255,376.456 C217.344,375.733 219.694,375.151 222.304,374.709 C224.913,374.268 227.907,374.046 231.282,374.046 C239.875,374.046 246.223,376.356 250.318,380.974 C254.416,385.594 256.464,391.799 256.464,399.59 L256.464,432.485 L240.198,432.485 L239.717,427.183 z M239.717,407.543 C239.313,407.464 238.55,407.362 237.426,407.242 C236.301,407.121 235.017,407.061 233.571,407.061 C228.751,407.061 225.337,407.744 223.329,409.109 C221.321,410.476 220.316,412.404 220.316,414.893 C220.316,419.552 223.127,421.881 228.752,421.881 C230.116,421.881 231.463,421.661 232.788,421.218 C234.113,420.778 235.276,420.155 236.282,419.351 C237.286,418.549 238.108,417.543 238.752,416.338 C239.394,415.133 239.717,413.729 239.717,412.121 L239.717,407.543 L239.717,407.543 z" fill="#0C1B2A"/>
      <path d="M293.457,352.116 L313.579,352.116 L342.98,432.485 L323.099,432.485 L316.953,414.05 L288.638,414.05 L282.494,432.485 L263.455,432.485 L293.457,352.116 z M312.615,399.952 L302.855,369.588 L292.855,399.952 L312.615,399.952 z" fill="#00BC87"/>
      <path d="M351.773,352.116 L381.053,352.116 C386.033,352.116 390.289,352.839 393.826,354.285 C397.358,355.731 400.271,357.64 402.561,360.009 C404.85,362.378 406.537,365.13 407.622,368.262 C408.706,371.395 409.249,374.648 409.249,378.022 C409.249,382.359 408.505,386.155 407.019,389.408 C405.531,392.662 403.525,395.372 400.995,397.541 C398.465,399.711 395.552,401.358 392.259,402.482 C388.965,403.608 385.511,404.169 381.897,404.169 L369.487,404.169 L369.487,432.485 L351.773,432.485 L351.773,352.116 L351.773,352.116 z M380.09,389.469 C383.464,389.469 386.133,388.445 388.102,386.396 C390.069,384.348 391.053,381.679 391.053,378.384 C391.053,375.01 390.049,372.259 388.041,370.13 C386.033,368.003 383.342,366.937 379.967,366.937 L369.486,366.937 L369.486,389.47 L380.09,389.469 L380.09,389.469 z" fill="#00BC87"/>
      <path d="M421.416,352.116 L439.611,352.116 L439.611,432.485 L421.416,432.485 L421.416,352.116 z" fill="#00BC87"/>
      <path d="M459.611,415.013 C461.459,416.7 463.889,418.106 466.902,419.231 C469.914,420.357 472.824,420.918 475.638,420.918 C478.207,420.918 480.337,420.597 482.024,419.953 C483.711,419.312 484.554,418.067 484.554,416.218 C484.554,415.495 484.374,414.832 484.012,414.231 C483.65,413.628 482.987,413.067 482.024,412.544 C481.06,412.022 479.713,411.48 477.987,410.917 C476.259,410.356 474.07,409.712 471.42,408.989 C469.251,408.428 467.101,407.684 464.975,406.76 C462.845,405.837 460.957,404.693 459.311,403.326 C457.664,401.961 456.339,400.313 455.335,398.385 C454.329,396.458 453.828,394.21 453.828,391.638 C453.828,388.987 454.43,386.598 455.635,384.469 C456.841,382.341 458.507,380.493 460.636,378.926 C462.764,377.36 465.294,376.155 468.227,375.311 C471.158,374.468 474.312,374.046 477.686,374.046 C482.505,374.046 486.723,374.589 490.337,375.673 C493.953,376.757 497.284,378.344 500.339,380.432 L492.989,391.879 C491.14,390.674 489.03,389.59 486.662,388.626 C484.292,387.662 481.621,387.18 478.65,387.18 C475.999,387.18 474.07,387.562 472.867,388.325 C471.662,389.09 471.059,390.113 471.059,391.398 C471.059,393.246 472.303,394.611 474.794,395.494 C477.282,396.379 480.656,397.382 484.916,398.506 C490.699,400.114 494.896,402.322 497.508,405.133 C500.116,407.946 501.423,411.681 501.423,416.339 C501.423,419.472 500.72,422.164 499.315,424.412 C497.908,426.662 496.02,428.53 493.652,430.015 C491.281,431.502 488.591,432.606 485.579,433.329 C482.566,434.052 479.493,434.413 476.361,434.413 C471.3,434.413 466.52,433.73 462.022,432.365 C457.522,431 453.867,428.912 451.056,426.1 L459.611,415.013 z" fill="#00BC87"/>
    </g>
    <g>
      <path d="M266.711,298.567 L305.668,280.248 L305.668,200.008 L373.551,164.937 L373.551,122.875 L266.711,177.383 z" fill="#00BC87"/>
      <path d="M324.34,76.467 L255.487,112.138 L186.66,76.467 L147.868,103.331 L254.824,158.275 L362.87,103.151 z" fill="#00BC87"/>
      <path d="M205.332,280.248 L244.287,298.578 L244.287,178.071 L137.449,123.187 L137.449,164.937 L205.332,200.008 z" fill="#00BC87"/>
    </g>
  </g>
</svg>
