<?xml version="1.0" encoding="UTF-8"?>
<!DOCTYPE svg PUBLIC "-//W3C//DTD SVG 1.1//EN" "http://www.w3.org/Graphics/SVG/1.1/DTD/svg11.dtd">
<svg version="1.1" xmlns="http://www.w3.org/2000/svg" xmlns:xlink="http://www.w3.org/1999/xlink" x="0" y="0" width="720" height="280" viewBox="0, 0, 720, 280">
  <g id="svg-ndarray-schematic">
    <path d="M13.5,172.833 L696,172.833 L696,264.833 L13.5,264.833 L13.5,172.833 z" fill-opacity="0" stroke="#000000" stroke-width="1" id="svg-array-with-meta-data"/>
    <g id="svg-array-header">
      <path d="M22.15,190.833 L129.184,190.833 L129.184,246.833 L22.15,246.833 L22.15,190.833 z" fill-opacity="0" stroke="#000000" stroke-width="1"/>
      <path d="M37.567,226.667 L37.567,208.163 L39.876,208.163 L39.876,216.331 Q41.704,213.659 44.352,213.659 Q46.005,213.659 46.989,214.708 Q47.973,215.757 47.973,217.526 L47.973,226.667 L45.665,226.667 L45.665,218.276 Q45.665,216.858 45.249,216.255 Q44.833,215.651 43.872,215.651 Q41.751,215.651 39.876,218.428 L39.876,226.667 z" fill="#000000"/>
      <path d="M61.79,226.257 Q59.469,226.96 57.817,226.96 Q55.005,226.96 53.229,225.09 Q51.454,223.221 51.454,220.245 Q51.454,217.35 53.018,215.499 Q54.583,213.647 57.02,213.647 Q59.329,213.647 60.589,215.288 Q61.848,216.928 61.848,219.952 L61.837,220.667 L53.809,220.667 Q54.313,225.202 58.251,225.202 Q59.692,225.202 61.79,224.428 z M53.915,218.932 L59.528,218.932 Q59.528,215.382 56.88,215.382 Q54.219,215.382 53.915,218.932 z" fill="#000000"/>
      <path d="M72.395,225.049 Q70.321,226.96 68.399,226.96 Q66.817,226.96 65.774,225.969 Q64.731,224.979 64.731,223.467 Q64.731,221.382 66.483,220.262 Q68.235,219.143 71.505,219.143 L72.055,219.143 L72.055,217.608 Q72.055,215.393 69.782,215.393 Q67.954,215.393 65.833,216.518 L65.833,214.608 Q68.165,213.659 70.204,213.659 Q72.337,213.659 73.35,214.62 Q74.364,215.581 74.364,217.608 L74.364,223.374 Q74.364,225.354 75.583,225.354 Q75.735,225.354 76.028,225.307 L76.192,226.585 Q75.407,226.96 74.458,226.96 Q72.84,226.96 72.395,225.049 z M72.055,223.796 L72.055,220.503 L71.282,220.479 Q69.383,220.479 68.212,221.2 Q67.04,221.921 67.04,223.092 Q67.04,223.924 67.626,224.499 Q68.212,225.073 69.055,225.073 Q70.497,225.073 72.055,223.796 z" fill="#000000"/>
      <path d="M87.255,226.667 L87.255,224.276 Q85.848,226.96 83.012,226.96 Q80.715,226.96 79.397,225.284 Q78.079,223.608 78.079,220.702 Q78.079,217.526 79.573,215.592 Q81.067,213.659 83.505,213.659 Q85.766,213.659 87.255,215.393 L87.255,208.163 L89.575,208.163 L89.575,226.667 z M87.255,216.975 Q85.462,215.393 83.856,215.393 Q80.54,215.393 80.54,220.467 Q80.54,224.932 83.493,224.932 Q85.415,224.932 87.255,222.835 z" fill="#000000"/>
      <path d="M103.52,226.257 Q101.2,226.96 99.548,226.96 Q96.735,226.96 94.96,225.09 Q93.184,223.221 93.184,220.245 Q93.184,217.35 94.749,215.499 Q96.313,213.647 98.751,213.647 Q101.059,213.647 102.319,215.288 Q103.579,216.928 103.579,219.952 L103.567,220.667 L95.54,220.667 Q96.044,225.202 99.981,225.202 Q101.423,225.202 103.52,224.428 z M95.645,218.932 L101.258,218.932 Q101.258,215.382 98.61,215.382 Q95.95,215.382 95.645,218.932 z" fill="#000000"/>
      <path d="M107.563,226.667 L107.563,213.94 L109.872,213.94 L109.872,216.331 Q111.243,213.659 113.856,213.659 Q114.208,213.659 114.594,213.717 L114.594,215.874 Q113.997,215.674 113.54,215.674 Q111.348,215.674 109.872,218.276 L109.872,226.667 z" fill="#000000"/>
    </g>
    <g id="svg-array-items">
      <g id="svg-array-items-ellipsis">
        <g>
          <path d="M393.5,226.5 C389.818,226.5 386.833,223.739 386.833,220.333 C386.833,216.928 389.818,214.167 393.5,214.167 C397.182,214.167 400.167,216.928 400.167,220.333 C400.167,223.739 397.182,226.5 393.5,226.5 z" fill="#000000"/>
          <path d="M393.5,226.5 C389.818,226.5 386.833,223.739 386.833,220.333 C386.833,216.928 389.818,214.167 393.5,214.167 C397.182,214.167 400.167,216.928 400.167,220.333 C400.167,223.739 397.182,226.5 393.5,226.5 z" fill-opacity="0" stroke="#000000" stroke-width="1"/>
        </g>
        <g>
          <path d="M412.833,226.5 C409.151,226.5 406.167,223.739 406.167,220.333 C406.167,216.928 409.151,214.167 412.833,214.167 C416.515,214.167 419.5,216.928 419.5,220.333 C419.5,223.739 416.515,226.5 412.833,226.5 z" fill="#000000"/>
          <path d="M412.833,226.5 C409.151,226.5 406.167,223.739 406.167,220.333 C406.167,216.928 409.151,214.167 412.833,214.167 C416.515,214.167 419.5,216.928 419.5,220.333 C419.5,223.739 416.515,226.5 412.833,226.5 z" fill-opacity="0" stroke="#000000" stroke-width="1"/>
        </g>
        <g>
          <path d="M432.833,226.5 C429.151,226.5 426.167,223.739 426.167,220.333 C426.167,216.928 429.151,214.167 432.833,214.167 C436.515,214.167 439.5,216.928 439.5,220.333 C439.5,223.739 436.515,226.5 432.833,226.5 z" fill="#000000"/>
          <path d="M432.833,226.5 C429.151,226.5 426.167,223.739 426.167,220.333 C426.167,216.928 429.151,214.167 432.833,214.167 C436.515,214.167 439.5,216.928 439.5,220.333 C439.5,223.739 436.515,226.5 432.833,226.5 z" fill-opacity="0" stroke="#000000" stroke-width="1"/>
        </g>
      </g>
      <path d="M146.833,190.833 L202.833,190.833 L202.833,246.833 L146.833,246.833 L146.833,190.833 z" fill-opacity="0" stroke="#000000" stroke-width="1"/>
      <path d="M203.5,190.833 L259.5,190.833 L259.5,246.833 L203.5,246.833 L203.5,190.833 z" fill-opacity="0" stroke="#000000" stroke-width="1"/>
      <path d="M259.833,190.833 L315.833,190.833 L315.833,246.833 L259.833,246.833 L259.833,190.833 z" fill-opacity="0" stroke="#000000" stroke-width="1"/>
      <path d="M315.5,190.833 L371.5,190.833 L371.5,246.833 L315.5,246.833 L315.5,190.833 z" fill-opacity="0" stroke="#000000" stroke-width="1"/>
      <path d="M454.833,190.833 L510.833,190.833 L510.833,246.833 L454.833,246.833 L454.833,190.833 z" fill-opacity="0" stroke="#000000" stroke-width="1"/>
      <path d="M510.5,190.833 L566.5,190.833 L566.5,246.833 L510.5,246.833 L510.5,190.833 z" fill-opacity="0" stroke="#000000" stroke-width="1"/>
      <path d="M565.833,190.833 L621.833,190.833 L621.833,246.833 L565.833,246.833 L565.833,190.833 z" fill-opacity="0" stroke="#000000" stroke-width="1"/>
      <path d="M621.5,190.833 L677.5,190.833 L677.5,246.833 L621.5,246.833 L621.5,190.833 z" fill-opacity="0" stroke="#000000" stroke-width="1"/>
    </g>
    <g id="svg-to-data-type-arrow">
      <path d="M77.833,190.833 L77.833,70.5" fill-opacity="0" stroke="#000000" stroke-width="1"/>
      <g>
        <path d="M77.833,70.5 L159.5,70.5" fill-opacity="0" stroke="#000000" stroke-width="1"/>
        <path d="M159.5,73.5 L167.5,70.5 L159.5,67.5 z" fill="#000000" fill-opacity="1" stroke="#000000" stroke-width="1" stroke-opacity="1"/>
      </g>
    </g>
    <g id="svg-data-type-box">
      <path d="M168.5,43.5 L332.5,43.5 L332.5,99.5 L168.5,99.5 L168.5,43.5 z" fill-opacity="0" stroke="#000000" stroke-width="1"/>
      <g id="svg-data-type-text">
        <path d="M207.186,77.667 L207.186,75.276 Q205.779,77.96 202.943,77.96 Q200.646,77.96 199.328,76.284 Q198.01,74.608 198.01,71.702 Q198.01,68.526 199.504,66.592 Q200.998,64.659 203.436,64.659 Q205.697,64.659 207.186,66.393 L207.186,59.163 L209.506,59.163 L209.506,77.667 z M207.186,67.975 Q205.393,66.393 203.787,66.393 Q200.471,66.393 200.471,71.467 Q200.471,75.932 203.424,75.932 Q205.346,75.932 207.186,73.835 z" fill="#000000"/>
        <path d="M220.686,76.049 Q218.611,77.96 216.689,77.96 Q215.107,77.96 214.064,76.969 Q213.021,75.979 213.021,74.467 Q213.021,72.382 214.773,71.262 Q216.525,70.143 219.795,70.143 L220.346,70.143 L220.346,68.608 Q220.346,66.393 218.072,66.393 Q216.244,66.393 214.123,67.518 L214.123,65.608 Q216.455,64.659 218.494,64.659 Q220.627,64.659 221.641,65.62 Q222.654,66.581 222.654,68.608 L222.654,74.374 Q222.654,76.354 223.873,76.354 Q224.025,76.354 224.318,76.307 L224.482,77.585 Q223.697,77.96 222.748,77.96 Q221.131,77.96 220.686,76.049 z M220.346,74.796 L220.346,71.503 L219.572,71.479 Q217.674,71.479 216.502,72.2 Q215.33,72.921 215.33,74.092 Q215.33,74.924 215.916,75.499 Q216.502,76.073 217.346,76.073 Q218.787,76.073 220.346,74.796 z" fill="#000000"/>
        <path d="M231.197,77.96 Q229.439,77.96 228.455,76.952 Q227.471,75.944 227.471,74.151 L227.471,66.674 L225.877,66.674 L225.877,64.94 L227.471,64.94 L227.471,62.632 L229.779,62.409 L229.779,64.94 L233.107,64.94 L233.107,66.674 L229.779,66.674 L229.779,73.729 Q229.779,76.225 231.936,76.225 Q232.393,76.225 233.049,76.073 L233.049,77.667 Q231.982,77.96 231.197,77.96 z" fill="#000000"/>
        <path d="M242.916,76.049 Q240.842,77.96 238.92,77.96 Q237.338,77.96 236.295,76.969 Q235.252,75.979 235.252,74.467 Q235.252,72.382 237.004,71.262 Q238.756,70.143 242.025,70.143 L242.576,70.143 L242.576,68.608 Q242.576,66.393 240.303,66.393 Q238.475,66.393 236.354,67.518 L236.354,65.608 Q238.686,64.659 240.725,64.659 Q242.857,64.659 243.871,65.62 Q244.885,66.581 244.885,68.608 L244.885,74.374 Q244.885,76.354 246.104,76.354 Q246.256,76.354 246.549,76.307 L246.713,77.585 Q245.928,77.96 244.979,77.96 Q243.361,77.96 242.916,76.049 z M242.576,74.796 L242.576,71.503 L241.803,71.479 Q239.904,71.479 238.732,72.2 Q237.561,72.921 237.561,74.092 Q237.561,74.924 238.146,75.499 Q238.732,76.073 239.576,76.073 Q241.018,76.073 242.576,74.796 z" fill="#000000"/>
        <path d="M259.428,77.96 Q257.67,77.96 256.686,76.952 Q255.701,75.944 255.701,74.151 L255.701,66.674 L254.107,66.674 L254.107,64.94 L255.701,64.94 L255.701,62.632 L258.01,62.409 L258.01,64.94 L261.338,64.94 L261.338,66.674 L258.01,66.674 L258.01,73.729 Q258.01,76.225 260.166,76.225 Q260.623,76.225 261.279,76.073 L261.279,77.667 Q260.213,77.96 259.428,77.96 z" fill="#000000"/>
        <path d="M265.322,82.296 L267.385,77.667 L262.463,64.94 L264.959,64.94 L268.604,74.526 L272.494,64.94 L274.674,64.94 L267.725,82.296 z" fill="#000000"/>
        <path d="M277.123,82.296 L277.123,64.94 L279.432,64.94 L279.432,67.331 Q280.85,64.659 283.686,64.659 Q285.982,64.659 287.301,66.335 Q288.619,68.01 288.619,70.917 Q288.619,74.081 287.125,76.02 Q285.631,77.96 283.193,77.96 Q280.932,77.96 279.432,76.225 L279.432,82.296 z M279.432,74.632 Q281.213,76.225 282.83,76.225 Q286.158,76.225 286.158,71.151 Q286.158,66.674 283.205,66.674 Q281.271,66.674 279.432,68.772 z" fill="#000000"/>
        <path d="M301.557,77.257 Q299.236,77.96 297.584,77.96 Q294.771,77.96 292.996,76.09 Q291.221,74.221 291.221,71.245 Q291.221,68.35 292.785,66.499 Q294.35,64.647 296.787,64.647 Q299.096,64.647 300.355,66.288 Q301.615,67.928 301.615,70.952 L301.604,71.667 L293.576,71.667 Q294.08,76.202 298.018,76.202 Q299.459,76.202 301.557,75.428 z M293.682,69.932 L299.295,69.932 Q299.295,66.382 296.646,66.382 Q293.986,66.382 293.682,69.932 z" fill="#000000"/>
      </g>
    </g>
    <g id="svg-from-array-item-arrow">
      <path d="M537.5,190.833 L537.076,140.5" fill-opacity="0" stroke="#000000" stroke-width="1"/>
      <path d="M540.076,140.474 L537.008,132.5 L534.076,140.525 z" fill="#000000" fill-opacity="1" stroke="#000000" stroke-width="1" stroke-opacity="1"/>
    </g>
    <g id="svg-array-item-object">
      <path d="M494.5,13.5 L581.5,13.5 L581.5,131.5 L494.5,131.5 L494.5,13.5 z" fill-opacity="0" stroke="#000000" stroke-width="1"/>
      <path d="M509.5,64.5 L565.5,64.5 L565.5,120.5 L509.5,120.5 L509.5,64.5 z" fill-opacity="0" stroke="#000000" stroke-width="4"/>
      <path d="M501.5,21.5 L573.5,21.5 L573.5,51.167 L501.5,51.167 L501.5,21.5 z" fill-opacity="0" stroke="#000000" stroke-width="1"/>
      <g id="svg-array-item-header">
        <path d="M508.8,42 L508.8,28.122 L510.532,28.122 L510.532,34.248 Q511.903,32.244 513.889,32.244 Q515.128,32.244 515.867,33.031 Q516.605,33.817 516.605,35.145 L516.605,42 L514.874,42 L514.874,35.707 Q514.874,34.644 514.562,34.191 Q514.25,33.738 513.529,33.738 Q511.938,33.738 510.532,35.821 L510.532,42 z" fill="#000000"/>
        <path d="M526.967,41.692 Q525.227,42.22 523.988,42.22 Q521.878,42.22 520.547,40.818 Q519.215,39.416 519.215,37.184 Q519.215,35.013 520.389,33.624 Q521.562,32.235 523.39,32.235 Q525.122,32.235 526.066,33.466 Q527.011,34.696 527.011,36.964 L527.002,37.5 L520.982,37.5 Q521.36,40.901 524.313,40.901 Q525.394,40.901 526.967,40.321 z M521.061,36.199 L525.271,36.199 Q525.271,33.536 523.285,33.536 Q521.29,33.536 521.061,36.199 z" fill="#000000"/>
        <path d="M534.921,40.787 Q533.366,42.22 531.924,42.22 Q530.738,42.22 529.956,41.477 Q529.173,40.734 529.173,39.601 Q529.173,38.036 530.487,37.197 Q531.801,36.357 534.253,36.357 L534.667,36.357 L534.667,35.206 Q534.667,33.545 532.961,33.545 Q531.59,33.545 530,34.389 L530,32.956 Q531.749,32.244 533.278,32.244 Q534.877,32.244 535.638,32.965 Q536.398,33.686 536.398,35.206 L536.398,39.53 Q536.398,41.016 537.312,41.016 Q537.426,41.016 537.646,40.98 L537.769,41.938 Q537.18,42.22 536.468,42.22 Q535.255,42.22 534.921,40.787 z M534.667,39.847 L534.667,37.377 L534.086,37.359 Q532.663,37.359 531.784,37.9 Q530.905,38.44 530.905,39.319 Q530.905,39.943 531.344,40.374 Q531.784,40.805 532.417,40.805 Q533.498,40.805 534.667,39.847 z" fill="#000000"/>
        <path d="M546.066,42 L546.066,40.207 Q545.011,42.22 542.884,42.22 Q541.162,42.22 540.173,40.963 Q539.184,39.706 539.184,37.526 Q539.184,35.145 540.305,33.694 Q541.425,32.244 543.253,32.244 Q544.95,32.244 546.066,33.545 L546.066,28.122 L547.806,28.122 L547.806,42 z M546.066,34.731 Q544.721,33.545 543.517,33.545 Q541.03,33.545 541.03,37.351 Q541.03,40.699 543.245,40.699 Q544.686,40.699 546.066,39.126 z" fill="#000000"/>
        <path d="M558.265,41.692 Q556.525,42.22 555.286,42.22 Q553.176,42.22 551.845,40.818 Q550.513,39.416 550.513,37.184 Q550.513,35.013 551.687,33.624 Q552.86,32.235 554.688,32.235 Q556.419,32.235 557.364,33.466 Q558.309,34.696 558.309,36.964 L558.3,37.5 L552.28,37.5 Q552.658,40.901 555.611,40.901 Q556.692,40.901 558.265,40.321 z M552.359,36.199 L556.569,36.199 Q556.569,33.536 554.583,33.536 Q552.587,33.536 552.359,36.199 z" fill="#000000"/>
        <path d="M561.297,42 L561.297,32.455 L563.029,32.455 L563.029,34.248 Q564.057,32.244 566.017,32.244 Q566.281,32.244 566.571,32.288 L566.571,33.905 Q566.123,33.756 565.78,33.756 Q564.136,33.756 563.029,35.707 L563.029,42 z" fill="#000000"/>
      </g>
    </g>
    <g id="svg-from-data-type-arrow">
      <path d="M332.5,70.5 L485.5,70.5" fill-opacity="0" stroke="#000000" stroke-width="1"/>
      <path d="M485.5,73.5 L493.5,70.5 L485.5,67.5 z" fill="#000000" fill-opacity="1" stroke="#000000" stroke-width="1" stroke-opacity="1"/>
    </g>
    <path d="M510,190.833 L566,190.833 L566,246.833 L510,246.833 L510,190.833 z" fill-opacity="0" stroke="#000000" stroke-width="4" id="svg-array-item"/>
  </g>
</svg>
