<svg viewBox="0,0,1152,500" width="1152" height="500"><g><g transform="translate(72,0)"><rect x="3" y="0" width="50" height="480" fill="#98abc5"></rect><rect x="56" y="63" width="50" height="417" fill="#6b486b"></rect><rect x="109" y="100" width="50" height="380" fill="#d0743c"></rect></g><g transform="translate(253,0)"><rect x="3" y="0" width="50" height="480" fill="#98abc5"></rect><rect x="56" y="69" width="50" height="411" fill="#6b486b"></rect><rect x="109" y="100" width="50" height="380" fill="#d0743c"></rect></g><g transform="translate(434,0)"><rect x="3" y="35" width="50" height="445" fill="#98abc5"></rect><rect x="56" y="99" width="50" height="381" fill="#6b486b"></rect><rect x="109" y="109" width="50" height="371" fill="#d0743c"></rect></g><g transform="translate(615,0)"><rect x="3" y="96" width="50" height="384" fill="#98abc5"></rect><rect x="56" y="189" width="50" height="291" fill="#6b486b"></rect><rect x="109" y="186" width="50" height="294" fill="#d0743c"></rect></g><g transform="translate(796,0)"><rect x="3" y="183" width="50" height="297" fill="#98abc5"></rect><rect x="56" y="269" width="50" height="211" fill="#6b486b"></rect><rect x="109" y="260" width="50" height="220" fill="#d0743c"></rect></g><g transform="translate(977,0)"><rect x="3" y="304" width="50" height="176" fill="#98abc5"></rect><rect x="56" y="355" width="50" height="125" fill="#6b486b"></rect><rect x="109" y="339" width="50" height="141" fill="#d0743c"></rect></g></g><g transform="translate(0,480)" fill="none" font-size="10" font-family="sans-serif" text-anchor="middle"><g class="tick" opacity="1" transform="translate(154,0)"><line stroke="currentColor" y2="6"></line><text fill="currentColor" y="9" dy="0.71em">10</text></g><g class="tick" opacity="1" transform="translate(335,0)"><line stroke="currentColor" y2="6"></line><text fill="currentColor" y="9" dy="0.71em">100</text></g><g class="tick" opacity="1" transform="translate(516,0)"><line stroke="currentColor" y2="6"></line><text fill="currentColor" y="9" dy="0.71em">1000</text></g><g class="tick" opacity="1" transform="translate(697,0)"><line stroke="currentColor" y2="6"></line><text fill="currentColor" y="9" dy="0.71em">10000</text></g><g class="tick" opacity="1" transform="translate(878,0)"><line stroke="currentColor" y2="6"></line><text fill="currentColor" y="9" dy="0.71em">100000</text></g><g class="tick" opacity="1" transform="translate(1059,0)"><line stroke="currentColor" y2="6"></line><text fill="currentColor" y="9" dy="0.71em">1000000</text></g></g><g transform="translate(70,0)" fill="none" font-size="10" font-family="sans-serif" text-anchor="end"><g class="tick" opacity="1" transform="translate(0,480)"><line stroke="currentColor" x2="-6"></line><text fill="currentColor" x="-9" dy="0.32em">        10</text></g><g class="tick" opacity="1" transform="translate(0,452)"><line stroke="currentColor" x2="-6"></line><text fill="currentColor" x="-9" dy="0.32em">        20</text></g><g class="tick" opacity="1" transform="translate(0,435)"><line stroke="currentColor" x2="-6"></line><text fill="currentColor" x="-9" dy="0.32em"></text></g><g class="tick" opacity="1" transform="translate(0,424)"><line stroke="currentColor" x2="-6"></line><text fill="currentColor" x="-9" dy="0.32em"></text></g><g class="tick" opacity="1" transform="translate(0,415)"><line stroke="currentColor" x2="-6"></line><text fill="currentColor" x="-9" dy="0.32em"></text></g><g class="tick" opacity="1" transform="translate(0,407)"><line stroke="currentColor" x2="-6"></line><text fill="currentColor" x="-9" dy="0.32em"></text></g><g class="tick" opacity="1" transform="translate(0,401)"><line stroke="currentColor" x2="-6"></line><text fill="currentColor" x="-9" dy="0.32em"></text></g><g class="tick" opacity="1" transform="translate(0,396)"><line stroke="currentColor" x2="-6"></line><text fill="currentColor" x="-9" dy="0.32em"></text></g><g class="tick" opacity="1" transform="translate(0,391)"><line stroke="currentColor" x2="-6"></line><text fill="currentColor" x="-9" dy="0.32em"></text></g><g class="tick" opacity="1" transform="translate(0,387)"><line stroke="currentColor" x2="-6"></line><text fill="currentColor" x="-9" dy="0.32em">       100</text></g><g class="tick" opacity="1" transform="translate(0,358)"><line stroke="currentColor" x2="-6"></line><text fill="currentColor" x="-9" dy="0.32em">       200</text></g><g class="tick" opacity="1" transform="translate(0,342)"><line stroke="currentColor" x2="-6"></line><text fill="currentColor" x="-9" dy="0.32em"></text></g><g class="tick" opacity="1" transform="translate(0,330)"><line stroke="currentColor" x2="-6"></line><text fill="currentColor" x="-9" dy="0.32em"></text></g><g class="tick" opacity="1" transform="translate(0,321)"><line stroke="currentColor" x2="-6"></line><text fill="currentColor" x="-9" dy="0.32em"></text></g><g class="tick" opacity="1" transform="translate(0,314)"><line stroke="currentColor" x2="-6"></line><text fill="currentColor" x="-9" dy="0.32em"></text></g><g class="tick" opacity="1" transform="translate(0,308)"><line stroke="currentColor" x2="-6"></line><text fill="currentColor" x="-9" dy="0.32em"></text></g><g class="tick" opacity="1" transform="translate(0,302)"><line stroke="currentColor" x2="-6"></line><text fill="currentColor" x="-9" dy="0.32em"></text></g><g class="tick" opacity="1" transform="translate(0,297)"><line stroke="currentColor" x2="-6"></line><text fill="currentColor" x="-9" dy="0.32em"></text></g><g class="tick" opacity="1" transform="translate(0,293)"><line stroke="currentColor" x2="-6"></line><text fill="currentColor" x="-9" dy="0.32em">      1000</text></g><g class="tick" opacity="1" transform="translate(0,265)"><line stroke="currentColor" x2="-6"></line><text fill="currentColor" x="-9" dy="0.32em">      2000</text></g><g class="tick" opacity="1" transform="translate(0,249)"><line stroke="currentColor" x2="-6"></line><text fill="currentColor" x="-9" dy="0.32em"></text></g><g class="tick" opacity="1" transform="translate(0,237)"><line stroke="currentColor" x2="-6"></line><text fill="currentColor" x="-9" dy="0.32em"></text></g><g class="tick" opacity="1" transform="translate(0,228)"><line stroke="currentColor" x2="-6"></line><text fill="currentColor" x="-9" dy="0.32em"></text></g><g class="tick" opacity="1" transform="translate(0,220)"><line stroke="currentColor" x2="-6"></line><text fill="currentColor" x="-9" dy="0.32em"></text></g><g class="tick" opacity="1" transform="translate(0,214)"><line stroke="currentColor" x2="-6"></line><text fill="currentColor" x="-9" dy="0.32em"></text></g><g class="tick" opacity="1" transform="translate(0,209)"><line stroke="currentColor" x2="-6"></line><text fill="currentColor" x="-9" dy="0.32em"></text></g><g class="tick" opacity="1" transform="translate(0,204)"><line stroke="currentColor" x2="-6"></line><text fill="currentColor" x="-9" dy="0.32em"></text></g><g class="tick" opacity="1" transform="translate(0,200)"><line stroke="currentColor" x2="-6"></line><text fill="currentColor" x="-9" dy="0.32em">     10000</text></g><g class="tick" opacity="1" transform="translate(0,172)"><line stroke="currentColor" x2="-6"></line><text fill="currentColor" x="-9" dy="0.32em">     20000</text></g><g class="tick" opacity="1" transform="translate(0,155)"><line stroke="currentColor" x2="-6"></line><text fill="currentColor" x="-9" dy="0.32em"></text></g><g class="tick" opacity="1" transform="translate(0,143)"><line stroke="currentColor" x2="-6"></line><text fill="currentColor" x="-9" dy="0.32em"></text></g><g class="tick" opacity="1" transform="translate(0,134)"><line stroke="currentColor" x2="-6"></line><text fill="currentColor" x="-9" dy="0.32em"></text></g><g class="tick" opacity="1" transform="translate(0,127)"><line stroke="currentColor" x2="-6"></line><text fill="currentColor" x="-9" dy="0.32em"></text></g><g class="tick" opacity="1" transform="translate(0,121)"><line stroke="currentColor" x2="-6"></line><text fill="currentColor" x="-9" dy="0.32em"></text></g><g class="tick" opacity="1" transform="translate(0,115)"><line stroke="currentColor" x2="-6"></line><text fill="currentColor" x="-9" dy="0.32em"></text></g><g class="tick" opacity="1" transform="translate(0,111)"><line stroke="currentColor" x2="-6"></line><text fill="currentColor" x="-9" dy="0.32em"></text></g><g class="tick" opacity="1" transform="translate(0,106)"><line stroke="currentColor" x2="-6"></line><text fill="currentColor" x="-9" dy="0.32em">    100000</text></g><g class="tick" opacity="1" transform="translate(0,78)"><line stroke="currentColor" x2="-6"></line><text fill="currentColor" x="-9" dy="0.32em">    200000</text></g><g class="tick" opacity="1" transform="translate(0,62)"><line stroke="currentColor" x2="-6"></line><text fill="currentColor" x="-9" dy="0.32em"></text></g><g class="tick" opacity="1" transform="translate(0,50)"><line stroke="currentColor" x2="-6"></line><text fill="currentColor" x="-9" dy="0.32em"></text></g><g class="tick" opacity="1" transform="translate(0,41)"><line stroke="currentColor" x2="-6"></line><text fill="currentColor" x="-9" dy="0.32em"></text></g><g class="tick" opacity="1" transform="translate(0,34)"><line stroke="currentColor" x2="-6"></line><text fill="currentColor" x="-9" dy="0.32em"></text></g><g class="tick" opacity="1" transform="translate(0,27)"><line stroke="currentColor" x2="-6"></line><text fill="currentColor" x="-9" dy="0.32em"></text></g><g class="tick" opacity="1" transform="translate(0,22)"><line stroke="currentColor" x2="-6"></line><text fill="currentColor" x="-9" dy="0.32em"></text></g><g class="tick" opacity="1" transform="translate(0,17)"><line stroke="currentColor" x2="-6"></line><text fill="currentColor" x="-9" dy="0.32em"></text></g><g class="tick" opacity="1" transform="translate(0,13)"><line stroke="currentColor" x2="-6"></line><text fill="currentColor" x="-9" dy="0.32em">   1000000</text><text fill="currentColor" x="3" dy="0.32em" text-anchor="start" font-weight="bold">Rate</text></g></g><g transform="translate(1152,0)" text-anchor="end" font-family="sans-serif" font-size="10"><g transform="translate(0,0)"><rect x="-19" width="19" height="19" fill="#98abc5"></rect><text x="-24" y="9.5" dy="0.35em">NumPy</text></g><g transform="translate(0,20)"><rect x="-19" width="19" height="19" fill="#6b486b"></rect><text x="-24" y="9.5" dy="0.35em">JavaScript</text></g><g transform="translate(0,40)"><rect x="-19" width="19" height="19" fill="#d0743c"></rect><text x="-24" y="9.5" dy="0.35em">Native</text></g></g></svg>
